<svg version="1.1" xmlns="http://www.w3.org/2000/svg" width="1000" height="919">

<path d="M0 0 C0.74068198 -0.00367669 1.48136397 -0.00735338 2.24449086 -0.01114148 C4.73943718 -0.02220069 7.23434189 -0.02602594 9.72930908 -0.02983093 C11.51295098 -0.03609391 13.29659157 -0.04274056 15.08023071 -0.04974365 C19.93572765 -0.06716909 24.79121472 -0.07770968 29.64673519 -0.08594918 C32.67905537 -0.09109621 35.71137248 -0.09717208 38.74369049 -0.10346031 C48.22746427 -0.12251694 57.71123023 -0.13674691 67.19501948 -0.14507228 C78.14912881 -0.15484658 89.10303616 -0.18116919 100.05707431 -0.22157317 C108.51913589 -0.25171628 116.98113952 -0.26653945 125.44325376 -0.26985329 C130.49943826 -0.2722059 135.55540712 -0.28119361 140.61153412 -0.30631447 C145.36890135 -0.32956853 150.12591055 -0.33383916 154.88331985 -0.32355309 C156.62882553 -0.32305696 158.37434866 -0.32939998 160.11980057 -0.34310913 C162.50461322 -0.36079085 164.88813579 -0.35374116 167.27294922 -0.34057617 C168.30691617 -0.35703004 168.30691617 -0.35703004 169.36177135 -0.37381631 C174.26817616 -0.30851163 177.13632991 1.03174411 180.89044189 4.14717102 C180.89044189 4.80717102 180.89044189 5.46717102 180.89044189 6.14717102 C181.63125 5.66256409 181.63125 5.66256409 182.38702393 5.16816711 C185.87211647 3.74680404 189.23812424 3.82226375 192.94512939 3.81123352 C193.72429718 3.80457672 194.50346497 3.79791992 195.3062439 3.7910614 C196.95196173 3.78095361 198.5977204 3.7762438 200.24346924 3.77656555 C202.75018513 3.77219761 205.25513167 3.73587585 207.76153564 3.69795227 C209.36439424 3.69208246 210.96726115 3.68811417 212.57012939 3.68623352 C213.68603958 3.66467697 213.68603958 3.66467697 214.82449341 3.64268494 C220.00724669 3.68776776 222.96247523 4.78434838 226.89044189 8.14717102 C230.41892228 12.63167195 230.31524062 16.5612302 230.27139282 22.02215576 C230.27607279 22.91649246 230.28075277 23.81082915 230.28557456 24.73226696 C230.29754153 27.72936169 230.28806054 30.72600062 230.27862549 33.72309875 C230.28269046 35.8717119 230.28803191 38.02032296 230.29455566 40.16893005 C230.30824473 46.00567958 230.30292376 51.84227021 230.29341841 57.67902255 C230.28582911 63.78478855 230.29286548 69.89054084 230.2975769 75.99630737 C230.30303699 86.25145411 230.29583661 96.50653607 230.28155518 106.76167297 C230.26523257 118.61948798 230.27051339 130.4771482 230.28703439 142.33495945 C230.30064721 152.51257796 230.30256977 162.69014987 230.29471838 172.86777455 C230.2900402 178.9477788 230.28942098 185.0277103 230.29932785 191.10770988 C230.30799204 196.8245722 230.30198541 202.54123496 230.28464508 208.25807571 C230.28067716 210.35671851 230.28181949 212.45537808 230.28843307 214.55401421 C230.2966265 217.41797066 230.2863533 220.281287 230.27139282 223.14520264 C230.27808499 223.97643267 230.28477715 224.8076627 230.29167211 225.66408151 C230.2413721 230.62594361 229.38744396 233.7438118 226.89044189 238.14717102 C226.54056951 241.33772329 226.54056951 241.33772329 226.57794189 244.58467102 C226.28019522 250.12782723 225.34640241 253.0310704 221.46075439 256.97529602 C217.76247157 259.73520858 213.54814628 259.34104654 209.15216064 259.38545227 C208.39377396 259.39352402 207.63538727 259.40159576 206.85401917 259.40991211 C205.24940259 259.42373284 203.64475687 259.43446398 202.0401001 259.44233704 C200.40394441 259.45385583 198.76782627 259.47430631 197.13189697 259.50386047 C194.7633927 259.54664605 192.39600394 259.56272046 190.02716064 259.57295227 C189.30195724 259.59046036 188.57675385 259.60796844 187.82957458 259.62600708 C182.70259357 259.60428749 179.82795162 258.38525226 175.89044189 255.14717102 C174.01544189 252.39717102 174.01544189 252.39717102 172.89044189 250.14717102 C172.45731689 250.91029602 172.02419189 251.67342102 171.57794189 252.45967102 C169.30007454 256.0873857 167.98344987 257.78283503 163.89044189 259.14717102 C161.67206052 259.24774697 159.45073381 259.28656954 157.23008728 259.29434204 C156.54980416 259.29801873 155.86952103 259.30169542 155.16862327 259.30548352 C152.88407538 259.316516 150.59957298 259.32036343 148.31500244 259.32417297 C146.6789943 259.33043789 145.04298758 259.33708472 143.40698242 259.34408569 C138.03038524 259.36512282 132.65378777 259.37548685 127.27716064 259.38545227 C125.42645566 259.38949977 123.57575083 259.39361669 121.72504616 259.39780235 C113.03150128 259.41685222 104.3379649 259.43108442 95.64440316 259.43941432 C85.60719383 259.44919039 75.57020481 259.47552036 65.53307313 259.51591522 C57.77586863 259.54606392 50.01872733 259.56088196 42.26146537 259.56419533 C37.62782602 259.566547 32.9944221 259.57552273 28.36084557 259.60065651 C24.00153176 259.62392089 19.64260867 259.62817714 15.2832489 259.61789513 C13.68448398 259.61739928 12.08569994 259.62373429 10.48699379 259.63745117 C8.30144374 259.65515205 6.11729874 259.64807455 3.93174744 259.63491821 C2.70965922 259.63730657 1.48757101 259.63969492 0.22844982 259.64215565 C-3.79960651 259.04484551 -5.96473652 257.69239353 -9.10955811 255.14717102 C-10.48455811 252.39717102 -10.48455811 252.39717102 -11.10955811 250.14717102 C-11.76955811 250.14717102 -12.42955811 250.14717102 -13.10955811 250.14717102 C-13.31580811 250.88967102 -13.52205811 251.63217102 -13.73455811 252.39717102 C-15.58100634 256.09006748 -17.49381022 257.17701222 -21.10955811 259.14717102 C-23.92518174 259.53079069 -26.33565301 259.71015247 -29.14080811 259.67842102 C-29.89494995 259.68224792 -30.6490918 259.68607483 -31.42608643 259.6900177 C-33.0128107 259.69272696 -34.5995804 259.68543497 -36.18621826 259.6686554 C-38.60309224 259.64722834 -41.01699438 259.66848721 -43.43377686 259.69404602 C-44.98196044 259.69140257 -46.53014219 259.68627721 -48.07830811 259.67842102 C-48.79410034 259.68651794 -49.50989258 259.69461487 -50.24737549 259.70295715 C-55.33085619 259.60882419 -58.28527363 258.48194708 -62.10955811 255.14717102 C-65.34650881 250.06766493 -65.53510517 245.91574495 -65.48377991 240.09378052 C-65.48775431 239.19238915 -65.49172872 238.29099778 -65.49582356 237.36229151 C-65.50543392 234.34747087 -65.49363607 231.33312095 -65.48187256 228.3183136 C-65.48430088 226.15483424 -65.4880206 223.991356 -65.49293518 221.82788086 C-65.50234049 215.95626122 -65.49292255 210.08480837 -65.47960305 204.21320176 C-65.46829088 198.07267623 -65.47239577 191.93215893 -65.47434998 185.79162598 C-65.47523282 175.48278577 -65.46415278 165.17401134 -65.44573975 154.8651886 C-65.42455547 142.93631414 -65.42106588 131.00753594 -65.4273017 119.07864648 C-65.43298965 107.6118224 -65.42735751 96.1450323 -65.41612816 84.67821312 C-65.41147634 79.79349325 -65.41061081 74.90879413 -65.412714 70.02407265 C-65.41459308 64.27769192 -65.40652238 58.53140963 -65.39065361 52.78505135 C-65.38639966 50.6722479 -65.38556762 48.55943448 -65.38834381 46.44662857 C-65.39155017 43.57084672 -65.38252304 40.69536189 -65.37025452 37.8196106 C-65.37403384 36.97643321 -65.37781316 36.13325583 -65.38170701 35.26452762 C-65.35217641 31.37271403 -65.31844366 29.46049935 -63.10955811 26.14717102 C-62.91401264 24.23641251 -62.79789825 22.31686478 -62.73455811 20.39717102 C-62.33485466 14.79454808 -61.59449485 11.57398256 -58.10955811 7.14717102 C-53.50130877 4.25954389 -49.5813178 3.72482429 -44.26190186 3.81904602 C-43.52758438 3.82091919 -42.79326691 3.82279236 -42.03669739 3.82472229 C-40.49282247 3.83141119 -38.94896359 3.84526235 -37.4052124 3.86592102 C-35.05063998 3.89712355 -32.69673894 3.9069036 -30.34197998 3.91279602 C-28.8361125 3.92196599 -27.33025177 3.93234175 -25.82440186 3.94404602 C-24.77578224 3.95042084 -24.77578224 3.95042084 -23.70597839 3.95692444 C-20.79268111 3.99927126 -18.11472848 4.14602648 -15.26409912 4.77705383 C-14.55310059 4.8991925 -13.84210205 5.02133118 -13.10955811 5.14717102 C-10.88023986 3.3345697 -10.88023986 3.3345697 -9.10955811 1.14717102 C-6.17506965 -0.32007321 -3.21708475 -0.00084944 0 0 Z " fill="#9FBFC9" transform="translate(270.10955810546875,152.8528289794922)" data-index="1" style="opacity: 1;"></path>
<path d="M0 0 C1.09725204 -0.00226556 2.19450408 -0.00453111 3.32500619 -0.00686532 C7.00282956 -0.01319696 10.680616 -0.01237649 14.35844421 -0.0115509 C16.99494057 -0.01454291 19.63143403 -0.01791724 22.26792908 -0.02172852 C28.68705301 -0.03002682 35.10616776 -0.03278299 41.52529661 -0.03334089 C46.74437618 -0.03381645 51.96345274 -0.03587315 57.18253136 -0.03904152 C71.98728817 -0.04784587 86.79203775 -0.05246124 101.59679721 -0.05171105 C102.39454209 -0.05167109 103.19228697 -0.05163113 104.01420593 -0.05158997 C104.8129275 -0.05154909 105.61164907 -0.0515082 106.43457433 -0.05146609 C119.37734452 -0.05105968 132.32008562 -0.06062834 145.2628474 -0.07472833 C158.5599388 -0.08909976 171.85701602 -0.09599809 185.15411538 -0.09513456 C192.61638028 -0.09480285 200.07861468 -0.09753837 207.54087257 -0.10831261 C213.89459372 -0.11742769 220.24827053 -0.11958459 226.60199539 -0.11280318 C229.84158907 -0.10954305 233.08108027 -0.11055454 236.32066917 -0.11815643 C239.83804144 -0.125875 243.35519111 -0.12123221 246.87255859 -0.11352539 C247.88891539 -0.11866895 248.90527219 -0.12381252 249.95242769 -0.12911195 C264.58001959 -0.05839539 264.58001959 -0.05839539 270.1342926 4.72245789 C274.17295645 7.97671723 276.97423559 7.81570709 282.00614929 7.71379089 C282.87842163 7.71624313 283.75069397 7.71869537 284.6493988 7.72122192 C286.535121 7.7233879 288.42088374 7.7141596 290.30650711 7.69473267 C293.29096162 7.66464628 296.27398422 7.66570282 299.25856018 7.67485046 C305.58980705 7.68875884 311.92058527 7.66402207 318.25175476 7.63371277 C325.5962098 7.59859508 332.93997226 7.57929812 340.28449631 7.60183716 C343.22532131 7.60245557 346.16489882 7.57325533 349.10554504 7.54301453 C350.90574875 7.54508861 352.70595157 7.54855329 354.50614929 7.55363464 C355.32390839 7.53715378 356.14166748 7.52067291 356.98420715 7.50369263 C360.66903964 7.5430851 362.71947445 7.80871534 365.63418579 10.13456726 C367.57107904 14.02653126 367.68004283 17.44790742 367.62846375 21.70011902 C367.63656822 22.97663834 367.63656822 22.97663834 367.64483643 24.27894592 C367.65731843 27.08505801 367.64083637 29.89014305 367.62284851 32.69621277 C367.62300351 34.65007074 367.62449266 36.60392902 367.6272583 38.55778503 C367.62864206 42.64996455 367.61608803 46.74179347 367.5933075 50.83390808 C367.56492305 56.07638218 367.56766055 61.31827382 367.58039761 66.56079102 C367.58735629 70.5945787 367.5795633 74.62823203 367.56714058 78.66200256 C367.56262794 80.59487899 367.56228765 82.52776986 367.56620598 84.46064758 C367.56912004 87.16316742 367.55260197 89.86488777 367.5308075 92.56730652 C367.53755997 93.7628566 367.53755997 93.7628566 367.54444885 94.9825592 C367.47750633 99.98463255 366.73456735 103.52590018 363.12675476 107.13371277 C360.61825578 107.23711817 358.13707303 107.27470747 355.62786388 107.27072716 C354.43002957 107.2747049 354.43002957 107.2747049 353.20799658 107.278763 C350.4974887 107.28650125 347.78702579 107.28701688 345.07650757 107.28761292 C343.12746381 107.29162456 341.1784209 107.29606228 339.229379 107.30089247 C333.84641699 107.31289701 328.46346397 107.31851537 323.08049119 107.32307363 C317.28555275 107.32901502 311.49062513 107.34062844 305.69569397 107.35136414 C291.68781674 107.375921 277.67993592 107.3905197 263.67204377 107.4034242 C259.71872375 107.40713361 255.7654041 107.41110704 251.81208444 107.41517687 C227.28714186 107.44040981 202.76219917 107.46248938 178.23724651 107.47490501 C172.55271083 107.4778265 166.86817516 107.48079398 161.18363953 107.48381042 C160.12425752 107.48436679 160.12425752 107.48436679 159.04347386 107.48493439 C136.13672255 107.49709426 113.23004801 107.5280444 90.32333277 107.56973195 C66.78727071 107.61248692 43.25124919 107.63914185 19.71514723 107.64437973 C5.84897218 107.64747066 -8.01708287 107.65841588 -21.88321877 107.69292831 C-33.12120519 107.72085274 -44.35904573 107.7319617 -55.59706417 107.72073285 C-61.33526329 107.71552675 -67.07315653 107.71855916 -72.81131172 107.74319839 C-78.05883694 107.76554373 -83.30583396 107.7650664 -88.55336752 107.74599452 C-90.45717188 107.74317373 -92.36101096 107.74890708 -94.2647591 107.76380746 C-96.8427698 107.78276005 -99.41886705 107.77123068 -101.99683094 107.75174522 C-102.74489243 107.76459444 -103.49295392 107.77744367 -104.26368394 107.79068226 C-108.07232466 107.72694405 -109.56823586 107.43279869 -112.33406085 104.72068757 C-113.82809594 102.20959717 -114.37458078 101.00383174 -114.38117981 98.14260864 C-114.39245911 97.3842421 -114.4037384 96.62587555 -114.4153595 95.8445282 C-114.40726257 95.02722229 -114.39916565 94.20991638 -114.39082336 93.36784363 C-114.39783264 92.49571732 -114.40484192 91.623591 -114.4120636 90.72503662 C-114.42963435 87.84921709 -114.41802518 84.97438563 -114.40449524 82.09855652 C-114.40719017 80.09746105 -114.41107261 78.09636686 -114.41609192 76.09527588 C-114.42198551 71.90475476 -114.41342746 67.71457503 -114.39472961 63.52409363 C-114.37192552 58.15138847 -114.38507341 52.77948194 -114.40901947 47.40680599 C-114.42346853 43.27611261 -114.41887578 39.14560882 -114.4085083 35.01490974 C-114.40583932 33.03375212 -114.40911679 31.05257729 -114.41842651 29.07143974 C-114.42857899 26.30389112 -114.41311015 23.53763933 -114.39082336 20.77018738 C-114.39892029 19.95085724 -114.40701721 19.1315271 -114.4153595 18.28736877 C-114.36490006 14.90732979 -114.12021244 12.54431108 -112.36268616 9.62231445 C-108.81521458 7.50104613 -105.53598305 7.60656838 -101.52461243 7.67961121 C-100.68522125 7.6790271 -99.84583008 7.67844299 -98.98100281 7.67784119 C-96.21028595 7.6806249 -93.44064883 7.71173 -90.67012024 7.74308777 C-88.7477019 7.75054915 -86.82527595 7.75624257 -84.90284729 7.76023865 C-79.84576884 7.7755031 -74.78915073 7.81479201 -69.73225403 7.85905457 C-64.57098111 7.89998971 -59.40963374 7.91824592 -54.24824524 7.93840027 C-44.12304311 7.98128538 -33.99818247 8.04954664 -23.87324524 8.13371277 C-23.58965149 7.50851746 -23.30605774 6.88332214 -23.01387024 6.23918152 C-21.45486675 3.36143192 -19.80672904 2.53378458 -16.87324524 1.13371277 C-11.28457468 -0.15268123 -5.70101198 -0.00862969 0 0 Z " fill="#8F7167" transform="translate(306.8732452392578,565.8662872314453)" data-index="2" style="opacity: 1;"></path>
<path d="M0 0 C0.79776855 0.67571045 1.59553711 1.3514209 2.41748047 2.04760742 C7.070529 5.15570966 12.38620959 4.54440651 17.78515625 4.50390625 C19.48592567 4.5180381 19.48592567 4.5180381 21.22105408 4.53245544 C24.8350542 4.56108134 28.44839569 4.564184 32.0625 4.5625 C35.68007842 4.56610676 39.29717913 4.57562216 42.91465759 4.60325623 C45.16277517 4.62005328 47.41105032 4.62291371 49.65919495 4.61024475 C59.37065784 4.67569614 59.37065784 4.67569614 63 8 C67.44957976 13.26027065 67.57027118 17.48162477 67.50170898 24.22460938 C67.50981346 25.74765434 67.50981346 25.74765434 67.51808167 27.3014679 C67.53056263 30.64919411 67.51408139 33.9960593 67.49609375 37.34375 C67.49624875 39.67492722 67.49773792 42.00610469 67.50050354 44.33728027 C67.50188726 49.21959851 67.48933357 54.10162288 67.46655273 58.98388672 C67.43816859 65.2384701 67.44090599 71.49256525 67.45364285 77.74718475 C67.46060165 82.55991782 67.45280835 87.37253827 67.44038582 92.18525696 C67.43587331 94.49131336 67.43553276 96.79738185 67.43945122 99.10343933 C67.44236532 102.32767469 67.42584607 105.55123998 67.40405273 108.77539062 C67.41080521 110.20163506 67.41080521 110.20163506 67.41769409 111.6566925 C67.35072782 117.62717694 66.74707793 122.11750095 62.44216728 126.6346283 C58.81774546 128.6609772 55.24595364 128.42003918 51.20057678 128.39440918 C50.30230539 128.40050028 49.404034 128.40659139 48.47854227 128.41286707 C45.46221099 128.42954428 42.44629967 128.42471451 39.42993164 128.41992188 C37.26998962 128.42725943 35.11005153 128.43584474 32.95011902 128.44558716 C27.07827201 128.46784415 21.20656515 128.47073176 15.33468175 128.46883965 C10.43635761 128.46872014 5.53806339 128.47727591 0.63974756 128.48561716 C-10.91393524 128.5048661 -22.46754579 128.50772952 -34.02124023 128.50097656 C-45.94899392 128.49433341 -57.87643855 128.51720798 -69.80412954 128.55429029 C-80.03776745 128.58495407 -90.27130578 128.59635096 -100.50498873 128.59245348 C-106.62025636 128.59038266 -112.73528351 128.59591688 -118.85050774 128.62034607 C-124.60027824 128.64255578 -130.34954506 128.64078324 -136.09931755 128.62041855 C-138.21128732 128.61699835 -140.32329061 128.62214079 -142.435215 128.63640213 C-145.31526681 128.65451068 -148.19359461 128.64190801 -151.07359314 128.62145996 C-152.33166705 128.64023673 -152.33166705 128.64023673 -153.61515659 128.65939283 C-157.88975204 128.59418124 -159.51800543 128.378358 -162.99540043 125.64865875 C-165.59771539 122.21024422 -166.12441749 119.76395487 -166.14717102 115.57278442 C-166.15790398 114.21434418 -166.15790398 114.21434418 -166.16885376 112.82846069 C-166.17154266 111.83722198 -166.17423157 110.84598328 -166.17700195 109.82470703 C-166.18357315 108.77891479 -166.19014435 107.73312256 -166.19691467 106.65563965 C-166.21665026 103.18969657 -166.22830953 99.72379678 -166.23828125 96.2578125 C-166.24235678 95.07528774 -166.2464323 93.89276299 -166.25063133 92.67440414 C-166.27149096 86.41819177 -166.28579443 80.16200135 -166.29516602 73.90576172 C-166.30624357 67.436878 -166.34065966 60.96833702 -166.38033772 54.49957466 C-166.40644861 49.53078561 -166.41485284 44.56207902 -166.41844749 39.59322739 C-166.423326 37.20816604 -166.43497567 34.82310868 -166.45348549 32.43811417 C-166.47776361 29.1031579 -166.47693253 25.76909912 -166.4699707 22.43408203 C-166.48918579 20.95329666 -166.48918579 20.95329666 -166.50878906 19.44259644 C-166.47647999 15.20253962 -166.40194602 12.68380423 -164.22062683 8.97286987 C-160.63527235 5.78753601 -157.96373843 4.7490083 -153.17573547 4.76190186 C-152.20720139 4.75940933 -151.2386673 4.75691681 -150.24078369 4.75434875 C-149.18461853 4.76161484 -148.12845337 4.76888092 -147.0402832 4.77636719 C-145.36397072 4.77575539 -145.36397072 4.77575539 -143.65379333 4.77513123 C-141.22567251 4.77493361 -138.79754851 4.77897653 -136.36944008 4.78673553 C-132.52297341 4.79694884 -128.67683142 4.79158515 -124.83036804 4.78131104 C-113.89344709 4.75331856 -102.95670369 4.74034923 -92.01977539 4.77001953 C-85.33003812 4.78798759 -78.6409703 4.77441204 -71.95125389 4.74356842 C-69.40485058 4.73746881 -66.85839608 4.74232135 -64.31203651 4.75844574 C-60.74294286 4.78009653 -57.17573199 4.76471447 -53.60668945 4.74121094 C-52.03762344 4.76425545 -52.03762344 4.76425545 -50.43685913 4.7877655 C-43.92794965 4.69654171 -40.07843595 3.42719918 -34.91318035 -0.58156967 C-25.50835594 -7.55429871 -9.72941152 -4.99576756 0 0 Z " fill="#907369" transform="translate(744,154)" data-index="3"></path>
<path d="M0 0 C1.09725204 -0.00226556 2.19450408 -0.00453111 3.32500619 -0.00686532 C7.00282956 -0.01319696 10.680616 -0.01237649 14.35844421 -0.0115509 C16.99494057 -0.01454291 19.63143403 -0.01791724 22.26792908 -0.02172852 C28.68705301 -0.03002682 35.10616776 -0.03278299 41.52529661 -0.03334089 C46.74437618 -0.03381645 51.96345274 -0.03587315 57.18253136 -0.03904152 C71.98728817 -0.04784587 86.79203775 -0.05246124 101.59679721 -0.05171105 C102.39454209 -0.05167109 103.19228697 -0.05163113 104.01420593 -0.05158997 C104.8129275 -0.05154909 105.61164907 -0.0515082 106.43457433 -0.05146609 C119.37734452 -0.05105968 132.32008562 -0.06062834 145.2628474 -0.07472833 C158.5599388 -0.08909976 171.85701602 -0.09599809 185.15411538 -0.09513456 C192.61638028 -0.09480285 200.07861468 -0.09753837 207.54087257 -0.10831261 C213.89459372 -0.11742769 220.24827053 -0.11958459 226.60199539 -0.11280318 C229.84158907 -0.10954305 233.08108027 -0.11055454 236.32066917 -0.11815643 C239.83804144 -0.125875 243.35519111 -0.12123221 246.87255859 -0.11352539 C247.88891539 -0.11866895 248.90527219 -0.12381252 249.95242769 -0.12911195 C264.75929337 -0.0575287 264.75929337 -0.0575287 270.56425476 4.50871277 C273.12675476 7.13371277 273.12675476 7.13371277 274.06425476 9.25871277 C275.80845652 12.33671588 278.95038148 12.86316345 282.12675476 14.13371277 C284.87808493 19.6363731 282.81613315 26.03289791 281.04277039 31.54191589 C280.76111023 32.37658386 280.47945007 33.21125183 280.18925476 34.07121277 C279.91146179 34.93295105 279.63366882 35.79468933 279.34745789 36.68254089 C277.29166804 42.96879949 277.29166804 42.96879949 276.12675476 44.13371277 C274.50749149 44.23261248 272.88389313 44.26110779 271.26161289 44.26234722 C269.67204803 44.26718389 269.67204803 44.26718389 268.05037075 44.27211827 C266.87179955 44.27056967 265.69322835 44.26902107 264.47894287 44.26742554 C263.23809966 44.26969109 261.99725645 44.27195665 260.71881193 44.27429086 C257.25883696 44.2795495 253.7989137 44.28027177 250.33893836 44.27909648 C246.61358934 44.27889323 242.88824821 44.284404 239.16290283 44.28915405 C231.85843656 44.29747752 224.55397835 44.30020966 217.24950773 44.30076643 C211.31514548 44.30124078 205.38078589 44.30329147 199.44642448 44.30646706 C182.63985397 44.3152782 165.83328985 44.31988571 149.02671701 44.31913658 C148.11976121 44.31909663 147.2128054 44.31905667 146.27836609 44.3190155 C145.37030932 44.31897462 144.46225255 44.31893374 143.52667891 44.31889162 C128.80380189 44.318485 114.08095043 44.32805733 99.35808081 44.34215387 C84.25881197 44.3564973 69.15955562 44.36342518 54.06027979 44.36256009 C45.57591228 44.36222742 37.09157155 44.36500507 28.60721016 44.37573814 C21.38433746 44.38481646 14.1615037 44.3870405 6.93862779 44.38022872 C3.25033549 44.37694995 -0.43788199 44.37695531 -4.1261673 44.38558197 C-8.11696332 44.39482055 -12.10764846 44.38870642 -16.09844971 44.38095093 C-17.27479019 44.38609449 -18.45113067 44.39123805 -19.66311783 44.39653748 C-20.72543548 44.39193869 -21.78775313 44.38733989 -22.88226223 44.38260174 C-24.26552972 44.38292779 -24.26552972 44.38292779 -25.67674202 44.38326043 C-27.87324524 44.13371277 -27.87324524 44.13371277 -29.87324524 42.13371277 C-30.40058899 40.06730652 -30.40058899 40.06730652 -30.81074524 37.57121277 C-31.44553305 34.04687082 -32.26780994 30.80824724 -33.49824524 27.44621277 C-34.84893916 23.5526308 -35.37156497 20.28637716 -34.87324524 16.13371277 C-33.25168557 13.61128662 -31.69813265 13.05547097 -28.93574524 11.82121277 C-25.26688763 9.79959735 -24.1186828 7.61051932 -21.87324524 4.13371277 C-15.45498327 -0.76443453 -7.69634551 -0.01165005 0 0 Z " fill="#686151" transform="translate(306.8732452392578,565.8662872314453)" data-index="4"></path>
<path d="M0 0 C0.74722824 -0.0049649 1.49445648 -0.00992981 2.264328 -0.01504517 C4.71171007 -0.02953499 7.15902759 -0.03644259 9.60644531 -0.04199219 C11.31561279 -0.04774962 13.02478027 -0.05350727 14.73394775 -0.05926514 C18.30456847 -0.06973407 21.87516691 -0.07560516 25.44580078 -0.07910156 C30.02472967 -0.08461183 34.60336503 -0.10871051 39.18220139 -0.13707352 C42.70630776 -0.15566524 46.23034243 -0.16090339 49.75449371 -0.16243744 C51.4434293 -0.16546671 53.13236355 -0.17350446 54.82125092 -0.18662262 C57.1766387 -0.20362895 59.53129494 -0.20181782 61.88671875 -0.1953125 C62.58494247 -0.20452728 63.2831662 -0.21374207 64.00254822 -0.22323608 C66.88570886 -0.19822157 68.74844996 -0.15112778 71.13165283 1.55523682 C72.55711619 3.72933493 72.37125059 4.92480484 71.99707031 7.47363281 C71.90039062 8.21226562 71.80371094 8.95089844 71.70410156 9.71191406 C71.18457031 12.16113281 71.18457031 12.16113281 70.12988281 14.85644531 C68.66584192 19.97453869 69.13517502 24.98114253 69.35058594 30.26074219 C69.435855 33.97435694 69.34881809 36.70973856 68.06738281 40.23144531 C66.18457031 42.16113281 66.18457031 42.16113281 63.26660156 42.64941406 C61.64818359 42.56240234 61.64818359 42.56240234 59.99707031 42.47363281 C58.91039062 42.42851562 57.82371094 42.38339844 56.70410156 42.33691406 C55.87265625 42.27890625 55.04121094 42.22089844 54.18457031 42.16113281 C55.17457031 43.18207031 55.17457031 43.18207031 56.18457031 44.22363281 C58.69096454 47.90489934 58.89982314 49.79014328 58.18457031 54.16113281 C54.49765518 57.86196083 50.67511789 59.09042057 45.74707031 60.34863281 C38.38449212 62.42601621 32.74562171 65.67383973 26.47363281 69.96191406 C19.7948621 74.42764792 12.51761828 77.60772162 5.15454102 80.76171875 C-6.21375692 85.64236315 -14.4820609 89.87929616 -21.81542969 100.16113281 C-25.83099975 104.96022874 -25.83099975 104.96022874 -29.87792969 105.78613281 C-33.8308916 104.94507709 -34.63331505 103.50704193 -36.81542969 100.16113281 C-37.37230469 99.21238281 -37.92917969 98.26363281 -38.50292969 97.28613281 C-41.67258382 93.00281641 -45.5148712 90.25085444 -49.81542969 87.16113281 C-50.52957031 86.60941406 -51.24371094 86.05769531 -51.97949219 85.48925781 C-57.84957259 81.17741694 -63.71013397 79.53169747 -70.81542969 78.16113281 C-72.3639188 72.32452002 -72.3639188 72.32452002 -70.94433594 69.31347656 C-68.28765297 65.54777329 -65.14767343 62.33838848 -61.81542969 59.16113281 C-60.45855198 57.80968262 -59.10459096 56.45530024 -57.75292969 55.09863281 C-55.10709635 52.45279948 -52.46126302 49.80696615 -49.81542969 47.16113281 C-53.08608659 40.64377987 -56.31548542 35.09950797 -61.59277344 30.01269531 C-62.81542969 28.16113281 -62.81542969 28.16113281 -62.75683594 25.62207031 C-61.5996752 22.5971273 -60.59757275 21.77687913 -57.81542969 20.16113281 C-56.04177271 19.40883868 -54.24739924 18.70446402 -52.44042969 18.03613281 C-47.56413713 16.09033288 -43.41702597 13.64650579 -39.12792969 10.66113281 C-27.65674703 2.81966193 -13.74814266 0.02226907 0 0 Z " fill="#6A6353" transform="translate(303.8154296875,207.8388671875)" data-index="5"></path>
<path d="M0 0 C5.9584351 5.27747109 10.13957046 12.22002193 12 20 C12.02724513 22.33317426 12.03019355 24.66686203 12 27 C12.87140625 26.40832031 13.7428125 25.81664062 14.640625 25.20703125 C33.62447656 12.5269982 33.62447656 12.5269982 44 13 C39.75440287 17.37706371 35.19688757 21.13074951 30.42578125 24.9140625 C27.84014145 26.94813781 27.84014145 26.94813781 26 30 C27.670625 30.12375 27.670625 30.12375 29.375 30.25 C37.77546283 31.32050146 44.32364202 35.02545876 51 40 C54.03928733 41.45056895 55.62574255 42 59 42 C62.74911767 33.11859504 65.98984465 24.46888965 68 15 C68.33 15 68.66 15 69 15 C69.33155287 23.87824898 69.02802537 31.56468547 66.65625 40.1953125 C66.00475913 42.97966038 65.65407228 45.16050999 66 48 C67.25792532 49.64806974 67.25792532 49.64806974 69 50.8125 C69.99 51.534375 70.98 52.25625 72 53 C68.30581799 53 66.22163822 51.71820705 63 50 C63.54515672 57.08703739 65.60918605 63.32796106 68 70 C74.48756756 65.59986738 78.9527919 60.82671893 83.37109375 54.35546875 C85 52 85 52 87 50 C84.98646571 62.28255919 78.85886134 71.38918678 70 80 C69.01 80.495 69.01 80.495 68 81 C67.38185224 83.44619143 67.38185224 83.44619143 67 86.3125 C66.45228312 89.97535662 65.72376874 92.73522039 64 96 C64.55985596 96.0501123 65.11971191 96.10022461 65.6965332 96.15185547 C68.23607956 96.38413587 70.77420691 96.62941785 73.3125 96.875 C74.19357422 96.95363281 75.07464844 97.03226562 75.98242188 97.11328125 C76.82998047 97.19707031 77.67753906 97.28085937 78.55078125 97.3671875 C79.33106689 97.44050293 80.11135254 97.51381836 80.9152832 97.58935547 C83 98 83 98 86 100 C81.06664449 102.50678634 77.23457312 103.27628907 71.72949219 103.46606445 C63.35723155 103.69106921 63.35723155 103.69106921 55.9765625 107.171875 C53.72108277 109.76695899 53.72108277 109.76695899 51.83203125 112.55078125 C49.86219281 115.18423264 48.3638882 116.09998354 45.4375 117.5 C43.43390382 118.47603982 43.43390382 118.47603982 42 120 C41.32517432 123.42726429 41.51843148 126.55544739 42 130 C37.125 126.25 37.125 126.25 36 124 C35.17822266 124.10828125 35.17822266 124.10828125 34.33984375 124.21875 C18.54611995 126.06777132 4.15779854 126.18933159 -8.9375 116.25 C-13.77857062 112.38897533 -17.75313691 108.28203452 -21 103 C-21.61875 102.05125 -22.2375 101.1025 -22.875 100.125 C-24 98 -24 98 -24 96 C-24.66 96 -25.32 96 -26 96 C-26.29003906 96.97839844 -26.29003906 96.97839844 -26.5859375 97.9765625 C-27.98640448 102.6771398 -29.41208726 107.35840891 -31 112 C-31.33 112 -31.66 112 -32 112 C-32.31791739 106.80734924 -31.71213942 102.39100422 -30.5625 97.3125 C-29.17629082 90.90128256 -28.73310241 84.79904338 -28.5625 78.25 C-28.348466 70.546157 -27.5235179 63.99787043 -24 57 C-33.66228684 62.54754872 -42.50088422 69.09454144 -48 79 C-49 77 -49 77 -48.3984375 75.1171875 C-40.56126866 57.94720691 -29.75060721 47.14144352 -12 40 C-18.69545751 33.30454249 -32.03962637 31.98662248 -41.15234375 31.34375 C-43 31 -43 31 -45 29 C-38.07547742 26.14395862 -31.9435712 25.56523372 -24.5 25.6875 C-23.51902344 25.68427734 -22.53804687 25.68105469 -21.52734375 25.67773438 C-12.93961101 25.74062722 -5.57229711 26.72844778 2 31 C2.21367504 20.42308574 2.06142435 10.41755521 0 0 Z " fill="#C7CC62" transform="translate(702,358)" data-index="6" style="opacity: 1;"></path>
<path d="M0 0 C0.33 0 0.66 0 1 0 C1.00586624 1.09358826 1.01173248 2.18717651 1.01777649 3.31390381 C1.0749606 13.61410419 1.14769962 23.91409256 1.23571491 34.214077 C1.28046463 39.50956454 1.31971064 44.80497432 1.34643555 50.10058594 C1.37242256 55.21004308 1.41279235 60.31920174 1.46318626 65.42847443 C1.47988614 67.37889141 1.49138094 69.32936005 1.49761391 71.27983856 C1.50722106 74.00946939 1.53523951 76.73833117 1.56762695 79.46777344 C1.56619186 80.27625732 1.56475677 81.08474121 1.5632782 81.91772461 C1.6139604 84.93301016 1.74411603 87.45628691 3.03918439 90.20810294 C5.98235744 92.89773021 8.98379679 92.54508187 12.77177715 92.49219131 C13.97740314 92.49911438 13.97740314 92.49911438 15.20738521 92.50617731 C17.92379556 92.51683734 20.63927373 92.4987617 23.3556366 92.48101807 C25.3133834 92.48276099 27.27112931 92.48626077 29.22887021 92.49137473 C34.62655661 92.50035324 40.02392779 92.48427164 45.421574 92.46426249 C51.23548167 92.44704317 57.04937052 92.45283027 62.86329651 92.45587158 C72.94225997 92.45797245 83.02112013 92.44538632 93.1000576 92.42292023 C107.67262349 92.39045886 122.2451415 92.37998585 136.8177394 92.37496826 C160.45884326 92.36656231 184.09989328 92.33960091 207.7409668 92.30175781 C230.71069044 92.26503175 253.68039937 92.23669159 276.65014648 92.21972656 C277.35793441 92.21920046 278.06572233 92.21867435 278.79495837 92.21813231 C285.90273097 92.21285831 293.01050368 92.20775504 300.11827649 92.20277687 C314.59816432 92.19263149 329.07805119 92.18134648 343.55793762 92.16937256 C344.2237275 92.1688234 344.88951738 92.16827424 345.57548271 92.16770844 C390.05034429 92.13089382 434.52517564 92.06742855 479 92 C479.10832169 94.08218362 479.18573541 96.16599129 479.25 98.25 C479.29640625 99.41015625 479.3428125 100.5703125 479.390625 101.765625 C479 105 479 105 477.171875 107.359375 C473.12066687 110.41964013 469.17209294 110.14390753 464.32027626 110.13422108 C463.52646545 110.13657331 462.73265464 110.13892554 461.91478896 110.14134905 C459.23245522 110.14805054 456.55016979 110.14758048 453.86782837 110.14717102 C451.93427054 110.15046891 450.0007134 110.15419432 448.06715715 110.1583125 C442.73624911 110.1683488 437.40535234 110.1720519 432.07443619 110.17470181 C426.33200347 110.17859994 420.58957972 110.18817849 414.84715271 110.19691467 C400.97210278 110.21669113 387.0970521 110.22674597 373.2219916 110.23564246 C366.69356047 110.24002269 360.16513016 110.24539012 353.63669968 110.25063133 C331.94535029 110.26764341 310.25400185 110.2821642 288.56264687 110.28938007 C287.1596706 110.28985483 285.75669433 110.29033072 284.35371806 110.29080774 C283.65795894 110.29104411 282.96219982 110.29128049 282.24535709 110.29152403 C278.72021201 110.29272524 275.19506694 110.29394069 271.66992188 110.29516602 C270.97034311 110.29540617 270.27076434 110.29564632 269.54998621 110.29589374 C246.85761063 110.30379024 224.16528725 110.32722979 201.47293447 110.35972196 C177.49024985 110.39399913 153.50759713 110.41372802 129.52488744 110.41702431 C116.44783922 110.41919309 103.37086776 110.4279955 90.29384232 110.45348549 C79.16098104 110.4751354 68.02821515 110.48327107 56.89533521 110.47351871 C51.21172249 110.46895765 45.52830684 110.47096476 39.84472084 110.49028015 C34.64601102 110.50779578 29.44764373 110.50700912 24.24893086 110.49138286 C22.36401394 110.48898907 20.47907402 110.49342111 18.59419246 110.50521151 C16.03950862 110.52020724 13.48605793 110.51074435 10.93140602 110.49498463 C9.82373792 110.51031794 9.82373792 110.51031794 8.69369268 110.52596101 C3.85999612 110.46050503 1.39199675 109.43676249 -2 106 C-3.60829509 102.78340982 -3.14723831 99.27598313 -3.14526367 95.74243164 C-3.14862228 94.88864426 -3.1519809 94.03485687 -3.15544128 93.15519714 C-3.1649661 90.32350218 -3.16689513 87.49186625 -3.16796875 84.66015625 C-3.17118015 82.6972196 -3.17454413 80.73428319 -3.17805481 78.77134705 C-3.18404983 74.65297897 -3.18589432 70.5346319 -3.18530273 66.41625977 C-3.18520106 61.13214966 -3.19885666 55.84817377 -3.21607494 50.5640955 C-3.22717856 46.5089811 -3.22922245 42.45389933 -3.22869301 38.39877129 C-3.22987547 36.45027643 -3.23431208 34.5017808 -3.24202538 32.55330086 C-3.25179271 29.8310918 -3.24896021 27.1091764 -3.24291992 24.38696289 C-3.24853943 23.57802582 -3.25415894 22.76908875 -3.25994873 21.93563843 C-3.2382091 18.0915858 -3.18371011 16.27556517 -1 13 C-0.5396236 9.80193335 -0.5396236 9.80193335 -0.375 6.3125 C-0.30023438 5.13300781 -0.22546875 3.95351563 -0.1484375 2.73828125 C-0.09945312 1.83464844 -0.05046875 0.93101562 0 0 Z " fill="#D9D1CC" transform="translate(192,580)" data-index="7" style="opacity: 1;"></path>
<path d="M0 0 C7.79789121 5.48794985 14.35400634 12.91756749 16.33984375 22.43359375 C16.66442869 24.47610388 16.96862517 26.52194297 17.25390625 28.5703125 C17.74146937 31.54482548 18.49074156 34.2691584 19.3828125 37.14453125 C21.97819492 46.33430369 21.54387217 54.90367175 17.7578125 63.64453125 C17.50257813 64.29808594 17.24734375 64.95164062 16.984375 65.625 C12.5015686 75.9272294 3.6160084 84.01873209 -6.46875 88.671875 C-17.13527003 92.54250184 -30.83228937 92.01104354 -41.2421875 87.64453125 C-53.17424012 81.64882322 -60.67034127 71.26848413 -64.8515625 58.83203125 C-66.91035567 47.30278953 -65.99750603 34.90418561 -59.3046875 25.14453125 C-58.51771484 24.05011719 -58.51771484 24.05011719 -57.71484375 22.93359375 C-56.16179239 20.51956697 -55.21531203 18.21496404 -54.2421875 15.51953125 C-50.69492453 6.22771285 -43.979213 1.13751994 -35.2421875 -3.35546875 C-23.35378287 -7.47331661 -10.77459898 -6.51356419 0 0 Z " fill="#E6C081" transform="translate(746.2421875,155.35546875)" data-index="8" style="opacity: 1;"></path>
<path d="M0 0 C0.33 0 0.66 0 1 0 C1.00238835 1.0561381 1.00477671 2.11227619 1.00723743 3.20041847 C1.06601113 28.88911852 1.14188079 54.57772462 1.23571491 80.26632118 C1.28069575 92.68909482 1.32010517 105.11183965 1.34643555 117.53466797 C1.36939705 128.36139313 1.40277445 139.18802727 1.44870156 150.01468027 C1.47265861 155.74822048 1.49137116 161.48167041 1.49761391 167.21525955 C1.50365347 172.61116407 1.52361267 178.00683751 1.55427551 183.40265656 C1.56307381 185.38356549 1.56677462 187.3645046 1.56500816 189.34543228 C1.56335789 192.04986138 1.58003376 194.75358402 1.60127258 197.45791626 C1.59642501 198.24197456 1.59157743 199.02603286 1.58658296 199.8338505 C1.64876862 204.63116973 2.43888193 207.9339348 5 212 C9.41080187 215.78886184 12.59476542 216.50451172 18.33984375 216.49609375 C19.02502579 216.49754898 19.71020782 216.49900421 20.41615295 216.50050354 C21.85747553 216.49885233 23.29881718 216.48737847 24.73999023 216.46655273 C26.92834596 216.43762102 29.11426971 216.44595341 31.30273438 216.45898438 C38.29485566 216.42800244 43.71272512 216.18727864 50 213 C51.61103291 211.27640511 51.61103291 211.27640511 52.4375 209.3125 C52.953125 208.219375 53.46875 207.12625 54 206 C54.66 206.99 55.32 207.98 56 209 C58.42203745 212.31011784 60.14281219 214.54239669 64 216 C67.148444 216.30418172 67.148444 216.30418172 70.7046814 216.26069641 C71.37765184 216.26452196 72.05062228 216.26834751 72.74398577 216.27228898 C74.99786045 216.28260356 77.25147965 216.27862982 79.50537109 216.2746582 C81.12182348 216.27900557 82.73827381 216.2841888 84.35472107 216.29014587 C88.7452661 216.30354536 93.1357251 216.30411342 97.5262866 216.30158257 C101.19178798 216.30051337 104.85727192 216.305395 108.52276957 216.310188 C117.17111744 216.32128675 125.81942189 216.3217187 134.46777344 216.31567383 C143.38825576 216.30963457 152.30858033 216.32194298 161.22903574 216.3432439 C168.88860498 216.36086115 176.54812401 216.36686101 184.20771277 216.36360615 C188.78203661 216.36179314 193.35624795 216.36443116 197.93055344 216.37832069 C202.23321523 216.39089622 206.53563124 216.38895759 210.83828926 216.37590981 C212.41607941 216.37354376 213.99388684 216.37627974 215.57165718 216.38453293 C217.72850658 216.39500028 219.88453131 216.3869007 222.04135132 216.3742218 C223.85041238 216.37447341 223.85041238 216.37447341 225.69602013 216.37473011 C230.22309011 215.86127982 233.67118529 214.47118772 236.75 211.0625 C237.94983656 209.08276967 239.02527348 207.09941097 240 205 C240.5859375 206.69270833 241.171875 208.38541667 241.7578125 210.078125 C243.66711774 213.03214443 245.94899069 214.28261417 249 216 C252.64722564 216.59366568 252.64722564 216.59366568 256.55859375 216.49609375 C257.61966087 216.4982766 257.61966087 216.4982766 258.7021637 216.50050354 C260.19056335 216.49885189 261.67898139 216.48737313 263.16723633 216.46655273 C265.42799556 216.43762163 267.68640097 216.44595275 269.94726562 216.45898438 C277.0709931 216.42840917 282.56013033 216.14156495 289 213 C289.9116122 223.28095985 289.9116122 223.28095985 287.76953125 227.3203125 C285.29202898 230.24437691 283.68328073 231.77223976 280 233 C277.41177605 233.13247175 274.85124953 233.21212329 272.26171875 233.23828125 C271.50333206 233.246353 270.74494537 233.25442474 269.96357727 233.26274109 C268.3589607 233.27656182 266.75431498 233.28729296 265.1496582 233.29516602 C263.51350252 233.30668481 261.87738438 233.32713529 260.24145508 233.35668945 C257.87295081 233.39947503 255.50556205 233.41554944 253.13671875 233.42578125 C252.41151535 233.44328934 251.68631195 233.46079742 250.93913269 233.47883606 C245.81215168 233.45711647 242.93750973 232.23808124 239 229 C237.125 226.25 237.125 226.25 236 224 C235.566875 224.763125 235.13375 225.52625 234.6875 226.3125 C232.40963264 229.94021468 231.09300798 231.63566401 227 233 C224.78161863 233.10057595 222.56029192 233.13939852 220.33964539 233.14717102 C219.65936226 233.15084771 218.97907914 233.1545244 218.27818137 233.1583125 C215.99363348 233.16934498 213.70913109 233.17319241 211.42456055 233.17700195 C209.7885524 233.18326687 208.15254569 233.1899137 206.51654053 233.19691467 C201.13994334 233.2179518 195.76334588 233.22831583 190.38671875 233.23828125 C188.53601377 233.24232875 186.68530894 233.24644567 184.83460426 233.25063133 C176.14105939 233.26968119 167.447523 233.2839134 158.75396127 233.2922433 C148.71675193 233.30201937 138.67976292 233.32834934 128.64263123 233.36874419 C120.88542673 233.3988929 113.12828544 233.41371094 105.37102348 233.41702431 C100.73738413 233.41937598 96.10398021 233.42835171 91.47040367 233.45348549 C87.11108986 233.47674987 82.75216678 233.48100612 78.39280701 233.47072411 C76.79404209 233.47022825 75.19525804 233.47656327 73.5965519 233.49028015 C71.41100184 233.50798103 69.22685684 233.50090353 67.04130554 233.48774719 C65.81921733 233.49013555 64.59712912 233.4925239 63.33800793 233.49498463 C59.30995159 232.89767449 57.14482158 231.54522251 54 229 C52.625 226.25 52.625 226.25 52 224 C51.34 224 50.68 224 50 224 C49.79375 224.7425 49.5875 225.485 49.375 226.25 C47.52855177 229.94289646 45.61574789 231.0298412 42 233 C39.18437637 233.38361967 36.77390509 233.56298145 33.96875 233.53125 C33.21460815 233.5350769 32.46046631 233.53890381 31.68347168 233.54284668 C30.0967474 233.54555594 28.50997771 233.53826395 26.92333984 233.52148438 C24.50646587 233.50005732 22.09256372 233.52131619 19.67578125 233.546875 C18.12759766 233.54423154 16.57941591 233.53910619 15.03125 233.53125 C14.31545776 233.53934692 13.59966553 233.54744385 12.86218262 233.55578613 C7.77870192 233.46165317 4.82428447 232.33477606 1 229 C-2.2369507 223.92049391 -2.42554707 219.76857393 -2.3742218 213.9466095 C-2.37819621 213.04521813 -2.38217061 212.14382676 -2.38626546 211.21512049 C-2.39587581 208.20029985 -2.38407796 205.18594993 -2.37231445 202.17114258 C-2.37474278 200.00766322 -2.37846249 197.84418498 -2.38337708 195.68070984 C-2.39278239 189.8090902 -2.38336444 183.93763735 -2.37004495 178.06603074 C-2.35873277 171.92550521 -2.36283767 165.78498791 -2.36479187 159.64445496 C-2.36567472 149.33561475 -2.35459467 139.02684032 -2.33618164 128.71801758 C-2.31499737 116.78914312 -2.31150778 104.86036492 -2.3177436 92.93147546 C-2.32343155 81.46465138 -2.3177994 69.99786128 -2.30657005 58.5310421 C-2.30191824 53.64632223 -2.30105271 48.76162311 -2.3031559 43.87690163 C-2.30503498 38.1305209 -2.29696428 32.38423861 -2.2810955 26.63788033 C-2.27684156 24.52507688 -2.27600952 22.41226346 -2.27878571 20.29945755 C-2.28199206 17.4236757 -2.27296493 14.54819087 -2.26069641 11.67243958 C-2.26447573 10.82926219 -2.26825506 9.98608481 -2.27214891 9.1173566 C-2.24261831 5.22554301 -2.20888555 3.31332833 0 0 Z " fill="#D9D2CD" transform="translate(207,179)" data-index="9"></path>

<path d="M0 0 C1.58984375 2.44921875 1.58984375 2.44921875 2.9375 5.6875 C3.43765625 6.86054688 3.9378125 8.03359375 4.453125 9.2421875 C4.70642578 9.85932617 4.95972656 10.47646484 5.22070312 11.11230469 C5.9935333 12.98433568 6.79581034 14.84066086 7.609375 16.6953125 C9.95601335 22.07399348 12.22895562 27.45775295 14.234375 32.97265625 C15.19987241 35.52925399 16.25499985 38.04257085 17.3125 40.5625 C17.7353125 41.57699219 18.158125 42.59148437 18.59375 43.63671875 C19.32923801 45.39576091 20.0657296 47.15440925 20.8125 48.90869141 C21.65578415 50.89343483 22.48492769 52.88366181 23.3125 54.875 C23.82425781 56.08929688 24.33601562 57.30359375 24.86328125 58.5546875 C25.99384593 61.98134746 26.09097338 64.43421872 26 68 C19.97451565 71.00460499 13.9415263 73.99370739 7.90307617 76.97216797 C5.84988276 77.98716792 3.79843187 79.00570072 1.7487793 80.02783203 C-1.19811961 81.49664238 -4.15105693 82.95262267 -7.10546875 84.40625 C-8.47761787 85.09527405 -8.47761787 85.09527405 -9.87748718 85.79821777 C-10.73800186 86.21865356 -11.59851654 86.63908936 -12.48510742 87.07226562 C-13.23789474 87.44532837 -13.99068207 87.81839111 -14.76628113 88.20275879 C-17.30084465 89.10737508 -19.32855645 89.14512662 -22 89 C-22.44802979 88.01829834 -22.89605957 87.03659668 -23.35766602 86.02514648 C-25.05494703 82.30659435 -26.75306838 78.58842642 -28.45141602 74.87036133 C-29.17982763 73.27541039 -29.90802536 71.68036175 -30.63598633 70.08520508 C-38.76854563 52.15784687 -38.76854563 52.15784687 -47.25 34.39453125 C-47.8275 33.21246094 -48.405 32.03039062 -49 30.8125 C-49.31066406 30.19826172 -49.62132812 29.58402344 -49.94140625 28.95117188 C-51.07233933 26.60562681 -52.01592134 24.6461214 -51.95092773 22.00854492 C-50.45385166 18.84642813 -48.08966626 18.18537061 -44.97265625 16.71875 C-44.35109146 16.42262817 -43.72952667 16.12650635 -43.08912659 15.82141113 C-41.06661361 14.8646211 -39.03453531 13.93092157 -37 13 C-35.64305919 12.36980721 -34.28612559 11.73959888 -32.92919922 11.109375 C-29.48209746 9.51972074 -26.01908225 7.96895288 -22.54663086 6.43554688 C-21.12175815 5.80351629 -19.69960301 5.1653286 -18.2800293 4.52148438 C-16.19095964 3.57412938 -14.09478655 2.64455528 -11.99609375 1.71875 C-11.365858 1.42931519 -10.73562225 1.13988037 -10.08628845 0.8416748 C-6.36267271 -0.77124192 -3.86098315 -1.46966737 0 0 Z " fill="#9FBEC9" transform="translate(642,171)" data-index="11"></path>
<path d="M0 0 C0.74722824 -0.0049649 1.49445648 -0.00992981 2.264328 -0.01504517 C4.71171007 -0.02953499 7.15902759 -0.03644259 9.60644531 -0.04199219 C11.31561279 -0.04774962 13.02478027 -0.05350727 14.73394775 -0.05926514 C18.30456847 -0.06973407 21.87516691 -0.07560516 25.44580078 -0.07910156 C30.02472967 -0.08461183 34.60336503 -0.10871051 39.18220139 -0.13707352 C42.70630776 -0.15566524 46.23034243 -0.16090339 49.75449371 -0.16243744 C51.4434293 -0.16546671 53.13236355 -0.17350446 54.82125092 -0.18662262 C57.1766387 -0.20362895 59.53129494 -0.20181782 61.88671875 -0.1953125 C62.58494247 -0.20452728 63.2831662 -0.21374207 64.00254822 -0.22323608 C66.88570886 -0.19822157 68.74844996 -0.15112778 71.13165283 1.55523682 C72.55711619 3.72933493 72.37125059 4.92480484 71.99707031 7.47363281 C71.90039062 8.21226562 71.80371094 8.95089844 71.70410156 9.71191406 C71.18457031 12.16113281 71.18457031 12.16113281 70.12988281 14.85644531 C68.66584192 19.97453869 69.13517502 24.98114253 69.35058594 30.26074219 C69.5407406 38.54230572 69.5407406 38.54230572 66.18457031 42.16113281 C61.20913523 43.38572355 54.59336015 42.69618697 50.18457031 40.16113281 C47.9151052 34.35624247 47.94406063 28.89451551 48.05957031 22.72363281 C48.06859375 21.80130859 48.07761719 20.87898438 48.08691406 19.92871094 C48.11029371 17.67257473 48.14306115 15.41699597 48.18457031 13.16113281 C28.8289581 13.47956297 14.43316202 17.41746067 -2.87402344 26.21972656 C-4.27099076 26.92969282 -5.66812649 27.63932782 -7.06542969 28.34863281 C-8.09301392 28.87082397 -8.09301392 28.87082397 -9.14135742 29.40356445 C-13.27137925 31.47384261 -17.3237883 33.14177206 -21.75683594 34.46582031 C-25.98118255 35.89263947 -29.87010653 38.10568225 -33.81542969 40.16113281 C-35.97939259 41.270589 -38.14609768 42.37471194 -40.31542969 43.47363281 C-41.31574219 43.98539063 -42.31605469 44.49714844 -43.34667969 45.02441406 C-45.81542969 46.16113281 -45.81542969 46.16113281 -47.81542969 46.16113281 C-48.14542969 46.82113281 -48.47542969 47.48113281 -48.81542969 48.16113281 C-49.23953125 47.38769531 -49.66363281 46.61425781 -50.10058594 45.81738281 C-53.44683195 39.87503824 -56.70156492 34.72341202 -61.62792969 29.97753906 C-62.81542969 28.16113281 -62.81542969 28.16113281 -62.75292969 25.62597656 C-61.60029196 22.59549988 -60.60032711 21.77847874 -57.81542969 20.16113281 C-56.04177271 19.40883868 -54.24739924 18.70446402 -52.44042969 18.03613281 C-47.56413713 16.09033288 -43.41702597 13.64650579 -39.12792969 10.66113281 C-27.65674703 2.81966193 -13.74814266 0.02226907 0 0 Z " fill="#8F7369" transform="translate(303.8154296875,207.8388671875)" data-index="12"></path>
<path d="M0 0 C0.6290625 0.50015625 1.258125 1.0003125 1.90625 1.515625 C2.5146875 1.97453125 3.123125 2.4334375 3.75 2.90625 C6.45517343 5.02445183 7.7991415 6.19429951 8.90625 9.515625 C9.70657425 21.07440637 9.23454457 30.48098365 1.65625 39.828125 C-4.09367646 45.9228008 -10.91919107 49.98267642 -19.35546875 50.8515625 C-30.2609834 50.97591272 -39.27297409 49.29438689 -47.375 41.57421875 C-50.4209933 37.9259495 -52.28750967 33.88131519 -54.09375 29.515625 C-54.526875 28.566875 -54.96 27.618125 -55.40625 26.640625 C-57.31143228 17.98070555 -56.91948734 9.14164935 -52.09375 1.515625 C-47.38403827 -3.51302884 -41.64857693 -5.785445 -35.09375 -7.484375 C-34.26875 -7.71125 -33.44375 -7.938125 -32.59375 -8.171875 C-20.9316029 -9.62964339 -9.52812076 -7.0394325 0 0 Z " fill="#907368" transform="translate(749.09375,168.484375)" data-index="13"></path>

<path d="M0 0 C0.64003067 4.68299671 1.14530077 9.26965265 1 14 C-1.375 17.125 -1.375 17.125 -4 19 C-4.86119134 21.17346568 -4.86119134 21.17346568 -5 23 C-4.34 23 -3.68 23 -3 23 C-3 22.34 -3 21.68 -3 21 C-1.70766393 19.62689293 -0.37562854 18.28965176 1 17 C4 18 4 18 5.8125 20.8125 C7 24 7 24 6.4375 26.0625 C5.31498937 27.57544911 4.13637609 29.04681686 2.9375 30.5 C1.13355073 32.82767647 0.42308458 34.1441791 0 37 C0.99 37 1.98 37 3 37 C3.268125 36.4225 3.53625 35.845 3.8125 35.25 C5.0388622 32.92636635 6.24843434 30.96175354 8 29 C11 29 11 29 13.75 31.6875 C15.51613537 33.95368575 16 34.61439324 16 37.5625 C14.90539462 40.23060061 13.50994268 42.54634315 12 45 C11.30420546 47.19130534 11.30420546 47.19130534 11 49 C12.99708897 48.35765742 12.99708897 48.35765742 15 47 C16.12891757 44.60540353 16.12891757 44.60540353 16.75 41.875 C17.11351562 40.50988281 17.11351562 40.50988281 17.484375 39.1171875 C17.65453125 38.41851562 17.8246875 37.71984375 18 37 C20.84550012 37.66010476 23.52325999 38.51724966 26.25 39.5625 C26.95640625 39.83191406 27.6628125 40.10132813 28.390625 40.37890625 C28.92171875 40.58386719 29.4528125 40.78882813 30 41 C29.85769192 42.41702513 29.71099254 43.8336096 29.5625 45.25 C29.48128906 46.03890625 29.40007813 46.8278125 29.31640625 47.640625 C29.02365007 49.82364639 28.57935581 51.8773182 28 54 C28.99 54.495 28.99 54.495 30 55 C30.99 50.71 31.98 46.42 33 42 C37.62 42 42.24 42 47 42 C49.28571429 50.42857143 49.28571429 50.42857143 49 55 C49.99 55 50.98 55 52 55 C51.855625 54.25234375 51.71125 53.5046875 51.5625 52.734375 C51.2840625 51.25710937 51.2840625 51.25710937 51 49.75 C50.814375 48.77546875 50.62875 47.8009375 50.4375 46.796875 C50 44 50 44 50 40 C52.31 39.67 54.62 39.34 57 39 C57 38.34 57 37.68 57 37 C58.32 37 59.64 37 61 37 C61.474375 38.134375 61.94875 39.26875 62.4375 40.4375 C63.63622083 43.75740166 63.63622083 43.75740166 65 45 C64.7834375 43.700625 64.7834375 43.700625 64.5625 42.375 C64.04166667 39.25 63.52083333 36.125 63 33 C63.66 33 64.32 33 65 33 C65 32.34 65 31.68 65 31 C65.66 31 66.32 31 67 31 C67 30.34 67 29.68 67 29 C67.66 29 68.32 29 69 29 C69 28.34 69 27.68 69 27 C69.66 27 70.32 27 71 27 C71 27.66 71 28.32 71 29 C72.98 29.33 74.96 29.66 77 30 C76.6051034 39.28007014 70.6974488 45.98112945 64.20703125 52.2109375 C53.95748756 60.51941716 41.75982487 61.97361545 29 61 C17.45785277 59.3063927 9.53057753 53.41470586 2.015625 44.73046875 C-3.94668479 36.65361886 -6.17896525 28.56221138 -6.1875 18.6875 C-6.19974609 17.95337891 -6.21199219 17.21925781 -6.22460938 16.46289062 C-6.2391101 11.01545062 -5.98952423 5.46701005 -2.4375 1.0625 C-1 0 -1 0 0 0 Z " fill="#EBC584" transform="translate(687,185)" data-index="15"></path>
<path d="M0 0 C0.99 0 1.98 0 3 0 C2.6740051 3.04261908 2.02104739 3.9801219 -0.25 6.125 C-5.30016386 9.56829354 -9.50129015 10.29377928 -15.53259182 10.26564884 C-16.66300616 10.27225614 -16.66300616 10.27225614 -17.81625715 10.27899691 C-20.34985143 10.2913408 -22.88323403 10.28944206 -25.41685486 10.28761292 C-27.2483082 10.29349614 -29.07975896 10.30023507 -30.91120631 10.30775779 C-35.95063257 10.32584764 -40.99000652 10.33135379 -46.02946126 10.33474457 C-51.46173148 10.34049834 -56.89396804 10.35762335 -62.32621765 10.37309265 C-75.44551078 10.40785345 -88.56480115 10.42343018 -101.68413028 10.43721595 C-107.85927757 10.44417513 -114.03442151 10.45333216 -120.20956612 10.46232414 C-140.73004491 10.49152484 -161.25052041 10.51632123 -181.77101803 10.52694798 C-183.08445245 10.52763867 -184.39788687 10.52832936 -185.75112233 10.52904099 C-187.06772598 10.529733 -188.38432963 10.53042502 -189.74083036 10.531138 C-192.4088446 10.53255001 -195.07685882 10.53396962 -197.74487305 10.53540039 C-198.40638422 10.53574993 -199.06789539 10.53609947 -199.74945235 10.53645961 C-221.2089844 10.54798914 -242.66834119 10.5873593 -264.12780075 10.6431467 C-286.81460452 10.70201715 -309.50130677 10.73546198 -332.18818861 10.73996013 C-344.55604973 10.74304593 -356.92366563 10.75761567 -369.29145622 10.80124092 C-379.81970444 10.83827284 -390.34764103 10.85156019 -400.87594502 10.83353604 C-406.24999506 10.82506138 -411.62340821 10.82803537 -416.99737549 10.86135483 C-421.91443259 10.89157249 -426.83037809 10.88966205 -431.74743981 10.86186682 C-433.52868953 10.85750895 -435.31001524 10.8650584 -437.09115254 10.88553984 C-450.39645773 11.02900636 -450.39645773 11.02900636 -454.40792763 8.45481288 C-456.55780095 6.05704405 -458 4.27940865 -458 1 C-456.68 1 -455.36 1 -454 1 C-451 4.21428571 -451 4.21428571 -451 7 C-394.82795094 6.96402175 -338.65595657 6.9071165 -282.48395917 6.82207905 C-275.85486623 6.81206139 -269.22577304 6.80221729 -262.59667969 6.79248047 C-261.27692644 6.7905391 -259.9571732 6.78859772 -258.59742743 6.78659752 C-237.21803114 6.75541193 -215.83864707 6.7385926 -194.45923203 6.72680578 C-172.52788205 6.71440215 -150.5965885 6.68691855 -128.66527414 6.64538693 C-115.12854177 6.62022902 -101.59190296 6.6068844 -88.05514687 6.60857043 C-78.77704148 6.60860014 -69.49903152 6.59400431 -60.2209633 6.56783572 C-54.86510784 6.55316379 -49.50944808 6.54500913 -44.1535759 6.55419731 C-39.25061945 6.56246631 -34.34805674 6.55237858 -29.44515878 6.52766338 C-27.67114724 6.52196584 -25.89709854 6.52301667 -24.12309808 6.53148755 C-11.93240117 6.80838481 -11.93240117 6.80838481 -1 2 C-0.67 1.34 -0.34 0.68 0 0 Z " fill="#7D5F55" transform="translate(660,653)" data-index="16"></path>
<path d="M0 0 C3.21828435 1.27748692 3.94805444 2.9472851 5.33569336 6.03149414 C5.75540405 7.04457642 5.75540405 7.04457642 6.18359375 8.078125 C6.63134155 9.10377563 6.63134155 9.10377563 7.08813477 10.15014648 C7.9309743 12.09777981 8.74705153 14.05479501 9.55859375 16.015625 C9.92597656 16.86125 10.29335938 17.706875 10.671875 18.578125 C12.31295366 22.56026847 12.66031763 25.74920585 12.55859375 30.015625 C10.03902632 31.28901982 7.51800726 32.55939142 4.99609375 33.828125 C4.29162109 34.18455078 3.58714844 34.54097656 2.86132812 34.90820312 C0.76776957 35.95980627 -1.33398855 36.99210766 -3.44140625 38.015625 C-4.0844873 38.33450684 -4.72756836 38.65338867 -5.39013672 38.98193359 C-9.8565256 41.07737959 -9.8565256 41.07737959 -12.51782227 40.79638672 C-15.961641 39.39857833 -16.96754996 35.66279251 -18.44140625 32.453125 C-18.77140625 31.76154297 -19.10140625 31.06996094 -19.44140625 30.35742188 C-20.10951478 28.95726475 -20.77128465 27.55406583 -21.42675781 26.14794922 C-22.77451422 23.3155853 -24.22231557 20.53773989 -25.68261719 17.76196289 C-26.6861442 15.4523655 -26.75150919 13.49644851 -26.44140625 11.015625 C-21.30537284 8.35249657 -16.16239896 6.0514254 -10.765625 3.96875 C-8.22642806 2.97781598 -8.22642806 2.97781598 -5.12890625 1.203125 C-2.44140625 0.015625 -2.44140625 0.015625 0 0 Z " fill="#E1E9ED" transform="translate(634.44140625,185.984375)" data-index="17"></path>
<path d="M0 0 C0.66 0 1.32 0 2 0 C2.99 2.31 3.98 4.62 5 7 C31.8073209 6.93953617 58.61454583 6.86208657 85.4217577 6.76428509 C97.86815864 6.71927477 110.31453064 6.67987225 122.76098633 6.65356445 C133.60636064 6.63062672 144.45164373 6.59727623 155.29694575 6.55129844 C161.04212763 6.52730912 166.78721885 6.50861782 172.53244972 6.50238609 C177.93573231 6.496361 183.33878276 6.47645496 188.7419796 6.44572449 C190.72898627 6.43690278 192.71602323 6.43323016 194.70304871 6.43499184 C197.4085307 6.4366337 200.11329579 6.42003904 202.81867981 6.39872742 C203.61147663 6.40357499 204.40427346 6.40842257 205.22109443 6.41341704 C209.34901304 6.4410957 209.34901304 6.4410957 212.82383251 4.47507954 C213.21196778 3.98830329 213.60010305 3.50152704 214 3 C214.99 3 215.98 3 217 3 C216.45003877 6.84972861 215.07541178 8.64749064 212 11 C209.10424166 11.39278202 206.58906154 11.54061741 203.69410706 11.50793457 C202.42632924 11.51729451 202.42632924 11.51729451 201.13293976 11.52684355 C198.2961078 11.5428197 195.4601296 11.53015129 192.62329102 11.51757812 C190.59142556 11.52299723 188.55956402 11.53011869 186.52770996 11.53881836 C181.0049623 11.55708089 175.48251295 11.54997171 169.95975995 11.53730202 C164.18450432 11.52718818 158.40927456 11.53656333 152.63401794 11.54284668 C142.93361822 11.55012837 133.23334023 11.54052226 123.53295898 11.52148438 C112.31414038 11.49972084 101.09561261 11.50676125 89.87680107 11.52879 C80.25036966 11.54693639 70.62402585 11.54950583 60.99758285 11.53903532 C55.24565516 11.53279545 49.4938642 11.53197829 43.74194527 11.54518127 C38.33364615 11.55672779 32.92572223 11.5487357 27.51746368 11.52560425 C25.53128368 11.52031052 23.54507216 11.52184224 21.55890465 11.53065491 C18.8498009 11.54156785 16.14190325 11.52789834 13.43287659 11.50793457 C12.64474298 11.51685746 11.85660936 11.52578034 11.04459292 11.53497362 C7.37956458 11.4824998 5.16396151 11.09798748 1.99247646 9.20262909 C0 7 0 7 -0.3125 3.25 C-0.209375 2.1775 -0.10625 1.105 0 0 Z " fill="#7F6157" transform="translate(586,265)" data-index="18"></path>
<path d="M0 0 C94.38 0 188.76 0 286 0 C286 0.99 286 1.98 286 3 C191.29 3 96.58 3 -1 3 C-0.67 2.01 -0.34 1.02 0 0 Z " fill="#605947" transform="translate(287,577)" data-index="19"></path>
<path d="M0 0 C0.99 0.33 1.98 0.66 3 1 C3 7.6 3 14.2 3 21 C3.66 21 4.32 21 5 21 C5.6496875 22.3921875 5.6496875 22.3921875 6.3125 23.8125 C8.1424707 27.40747892 8.1424707 27.40747892 11 30 C14.22591002 30.45279651 14.22591002 30.45279651 18.00202942 30.3742218 C18.71906451 30.37819621 19.43609961 30.38217061 20.17486304 30.38626546 C22.58397923 30.39591039 24.99251136 30.38405733 27.40161133 30.37231445 C29.12628906 30.37474176 30.85096539 30.37846049 32.57563782 30.38337708 C37.26587091 30.39280014 41.95589582 30.38334765 46.64611268 30.37004495 C51.55205464 30.35874276 56.45798615 30.36283714 61.36393738 30.36479187 C69.60667324 30.36567549 77.84932697 30.35458242 86.09204102 30.33618164 C95.61970666 30.31503403 105.14725176 30.31149928 114.67493612 30.3177436 C123.83781323 30.32344134 133.00064791 30.31778539 142.16351891 30.30657005 C146.06329826 30.30192735 149.96305165 30.30104883 153.86283302 30.3031559 C158.45846545 30.3050415 163.05397548 30.29691394 167.64958 30.2810955 C169.33540465 30.27685741 171.02124173 30.27599891 172.7070694 30.27878571 C175.0105199 30.28201537 177.31360654 30.27290596 179.61701965 30.26069641 C180.90547696 30.25864354 182.19393427 30.25659067 183.52143574 30.25447559 C187.04324054 29.99683672 189.76913763 29.41657277 193 28 C193.72159424 26.35636866 194.39351421 24.68949614 195 23 C197.125 22.1875 197.125 22.1875 199 22 C198.40541585 25.65569682 197.39426489 28.56821446 195.71484375 31.86328125 C195.26689453 32.74951172 194.81894531 33.63574219 194.35742188 34.54882812 C193.65456055 35.9168457 193.65456055 35.9168457 192.9375 37.3125 C192.46505859 38.24384766 191.99261719 39.17519531 191.50585938 40.13476562 C190.34262356 42.42598769 189.17386868 44.7142124 188 47 C186.68 47 185.36 47 184 47 C184.62380692 45.58280758 185.2491003 44.1662694 185.875 42.75 C186.39707031 41.56664062 186.39707031 41.56664062 186.9296875 40.359375 C187.90214201 38.21571615 188.94729482 36.10541037 190 34 C130.93 34.33 71.86 34.66 11 35 C11.99 36.98 12.98 38.96 14 41 C14 41.99 14 42.98 14 44 C13.01 44 12.02 44 11 44 C10.45730469 42.97519531 9.91460937 41.95039063 9.35546875 40.89453125 C8.63288255 39.53381697 7.91022238 38.17314196 7.1875 36.8125 C6.83107422 36.13896484 6.47464844 35.46542969 6.10742188 34.77148438 C5.75615234 34.11083984 5.40488281 33.45019531 5.04296875 32.76953125 C4.72352295 32.16729736 4.40407715 31.56506348 4.07495117 30.94458008 C2.97616193 28.88793626 2.97616193 28.88793626 1.390625 26.62304688 C-0.22738916 23.57109038 -0.34803736 21.69432857 -0.29296875 18.26171875 C-0.28330078 17.19501953 -0.27363281 16.12832031 -0.26367188 15.02929688 C-0.23853516 13.92650391 -0.21339844 12.82371094 -0.1875 11.6875 C-0.17396484 10.56537109 -0.16042969 9.44324219 -0.14648438 8.28710938 C-0.1112138 5.52424771 -0.06192235 2.76237171 0 0 Z " fill="#87A7B2" transform="translate(254,169)" data-index="20"></path>
<path d="M0 0 C0.73605469 0.27714844 1.47210937 0.55429687 2.23046875 0.83984375 C3.20628906 1.20207031 4.18210937 1.56429688 5.1875 1.9375 C6.63189453 2.47697266 6.63189453 2.47697266 8.10546875 3.02734375 C13.0304114 4.68228399 17.41936661 5.12137276 22.61328125 5.09765625 C24.4840332 5.09282227 24.4840332 5.09282227 26.39257812 5.08789062 C27.68615234 5.07951172 28.97972656 5.07113281 30.3125 5.0625 C31.62541016 5.05798828 32.93832031 5.05347656 34.29101562 5.04882812 C37.5273901 5.03705949 40.76367178 5.0206176 44 5 C40.23484417 11.20471762 36.62673034 16.90522237 31.375 21.9375 C30.47523438 22.81277344 29.57546875 23.68804687 28.6484375 24.58984375 C26.17449181 26.8412073 23.63940835 28.94659747 21 31 C9.88028109 27.04280466 2.44584428 18.02422104 -2.625 7.6875 C-3.11559644 4.17155886 -1.89364613 2.89873523 0 0 Z " fill="#917569" transform="translate(680,447)" data-index="21"></path>
<path d="M0 0 C1.9609375 0.54296875 1.9609375 0.54296875 4 2 C4.41733668 4.55543109 4.6054643 6.75088167 4.625 9.3125 C4.74723043 14.11239509 5.10972679 17.60700506 7 22 C7 23.32 7 24.64 7 26 C7.66 26 8.32 26 9 26 C9.53625 26.845625 10.0725 27.69125 10.625 28.5625 C14.76673255 35.05993918 20.72743147 39.61988666 28 42 C37.22298815 43.95101672 45.37329478 43.69715938 54 40 C54.99 40 55.98 40 57 40 C57 39.34 57 38.68 57 38 C58.98689731 36.64721885 60.98745218 35.31431695 63 34 C63.495 33.01 63.495 33.01 64 32 C64.66 32 65.32 32 66 32 C66 31.34 66 30.68 66 30 C66.66 30 67.32 30 68 30 C68.11214844 29.46890625 68.22429687 28.9378125 68.33984375 28.390625 C69.16858677 25.38949642 70.34759982 22.61591837 71.5625 19.75 C72.01753906 18.67234375 72.47257813 17.5946875 72.94140625 16.484375 C73.46541016 15.25460938 73.46541016 15.25460938 74 14 C74.66 14 75.32 14 76 14 C75.85892253 15.45880109 75.71197585 16.91703551 75.5625 18.375 C75.44068359 19.59316406 75.44068359 19.59316406 75.31640625 20.8359375 C75 23 75 23 74 25 C73.960008 26.99960012 73.95653201 29.00047242 74 31 C74.66 31.33 75.32 31.66 76 32 C76 32.99 76 33.98 76 35 C74.35 34.67 72.7 34.34 71 34 C71 33.34 71 32.68 71 32 C70.34 32 69.68 32 69 32 C69 32.66 69 33.32 69 34 C68.34 34 67.68 34 67 34 C67 34.66 67 35.32 67 36 C66.34 36 65.68 36 65 36 C65 36.66 65 37.32 65 38 C64.34 38 63.68 38 63 38 C63.22816406 38.60328125 63.45632813 39.2065625 63.69140625 39.828125 C63.97886719 40.62734375 64.26632812 41.4265625 64.5625 42.25 C64.85253906 43.03890625 65.14257812 43.8278125 65.44140625 44.640625 C66.04522837 47.19103452 65.8473932 48.55322229 65 51 C61 46.5 61 46.5 61 42 C59.68 42 58.36 42 57 42 C57 42.66 57 43.32 57 44 C53.535 44.495 53.535 44.495 50 45 C50.144375 45.58007812 50.28875 46.16015625 50.4375 46.7578125 C51.50889428 51.26659675 52.23945936 55.33054247 52 60 C51.01 60 50.02 60 49 60 C47.43560486 55.11126518 47 52.39277414 47 47 C42.38 47 37.76 47 33 47 C33 48.98 33 50.96 33 53 C32.22608338 55.49680242 31.1373721 57.63047479 30 60 C29.01 59.67 28.02 59.34 27 59 C27.99 54.71 28.98 50.42 30 46 C28.35 45.67 26.7 45.34 25 45 C22.60771311 44.10694126 20.33056638 43.05103974 18 42 C17.87625 43.0725 17.7525 44.145 17.625 45.25 C16.72727273 50.63636364 16.72727273 50.63636364 15 53 C12.875 53.75 12.875 53.75 11 54 C11.39244791 50.62494799 11.78850112 48.33351747 13.625 45.4375 C15.24197983 43.07537821 15.24197983 43.07537821 14.875 40.3125 C14.13021208 37.66654608 14.13021208 37.66654608 11 36 C11 35.34 11 34.68 11 34 C7.7444555 35.16269446 6.90301511 36.1469468 4.9375 39.125 C4.298125 40.07375 3.65875 41.0225 3 42 C2.01 42 1.02 42 0 42 C0.33669638 38.18410771 1.02506187 36.97260679 3.6875 34.0625 C4.450625 33.051875 5.21375 32.04125 6 31 C5.37708133 27.02889347 4.11386372 24.54770668 1 22 C0.34 23.32 -0.32 24.64 -1 26 C-1.66 26 -2.32 26 -3 26 C-3 26.66 -3 27.32 -3 28 C-3.66 28 -4.32 28 -5 28 C-4.75 25.625 -4.75 25.625 -4 23 C-1.953125 21.8359375 -1.953125 21.8359375 0 21 C0.10251672 15.87416389 0.03590199 11.05002222 -1 6 C-1.99 6.495 -1.99 6.495 -3 7 C-1.125 1.125 -1.125 1.125 0 0 Z " fill="#E5AD6D" transform="translate(687,180)" data-index="22" style="opacity: 1;"></path>
<path d="M0 0 C2.81876899 1.84027912 5.44789747 3.80621559 8 6 C7.34 6.33 6.68 6.66 6 7 C3.79831202 6.12511872 1.63576495 5.15035618 -0.5 4.125 C-2.24796875 3.29355469 -2.24796875 3.29355469 -4.03125 2.4453125 C-5.69096745 1.63729216 -7.34892547 0.82553726 -9 0 C-20.55777604 -0.72833093 -30.0891418 -0.6072388 -40 6 C-40.33 6.99 -40.66 7.98 -41 9 C-40.2575 8.505 -39.515 8.01 -38.75 7.5 C-36 6 -36 6 -32 6 C-32 6.66 -32 7.32 -32 8 C-32.83144531 8.38671875 -33.66289063 8.7734375 -34.51953125 9.171875 C-35.60621094 9.69265625 -36.69289063 10.2134375 -37.8125 10.75 C-39.43091797 11.51570312 -39.43091797 11.51570312 -41.08203125 12.296875 C-45.74309472 15.01738862 -47.66153112 18.53182266 -49.41796875 23.61328125 C-51.96985099 34.07771111 -49.21109275 43.84962103 -43.8359375 52.9765625 C-38.0706208 60.62443159 -28.69153649 63.88474392 -19.5859375 65.40234375 C-17.72871454 65.64187957 -15.86463031 65.82734905 -14 66 C-14.66 67.32 -15.32 68.64 -16 70 C-29.14156209 69.59934262 -35.26205745 66.89764649 -44.99609375 58.21875 C-46.97399733 56.02879048 -47.64001388 54.87988894 -48 52 C-48.66 52 -49.32 52 -50 52 C-52.83095324 44.98415937 -53.44625337 38.5508063 -53.69140625 31.0625 C-53.79324219 30.051875 -53.89507813 29.04125 -54 28 C-54.66 27.67 -55.32 27.34 -56 27 C-53.04503589 16.62158945 -48.03563582 7.19640444 -38.6875 1.3125 C-37.78386719 0.73113281 -36.88023437 0.14976562 -35.94921875 -0.44921875 C-24.87249404 -6.2736687 -10.98761678 -5.77374767 0 0 Z M-32 5 C-30 6 -30 6 -30 6 Z " fill="#E9C282" transform="translate(744,154)" data-index="23"></path>
<path d="M0 0 C0.66 0 1.32 0 2 0 C3.33333333 2 4.66666667 4 6 6 C7.57695632 8.0785608 7.57695632 8.0785608 10 9 C14.36850985 9.19379711 17.85475734 8.87400098 21.375 6.1875 C21.91125 5.465625 22.4475 4.74375 23 4 C23.86625 2.88625 23.86625 2.88625 24.75 1.75 C25.1625 1.1725 25.575 0.595 26 0 C29.3182484 3.83754987 29.51885941 6.4549867 29.34375 11.39453125 C28.79999449 15.51595085 27.61904043 18.74958375 25 22 C19.54615627 25.56169386 13.39466829 26.15498414 7 25 C2.96478298 22.90686604 0.65077082 20.24495287 -1.4375 16.25 C-2.20568476 11.81159918 -2.15977776 7.49153032 -2 3 C-1.34 3 -0.68 3 0 3 C0 2.01 0 1.02 0 0 Z " fill="#6B6353" transform="translate(710,189)" data-index="24"></path>
<path d="M0 0 C0.66 0 1.32 0 2 0 C2 52.8 2 105.6 2 160 C1.01 159.67 0.02 159.34 -1 159 C-1.02332721 138.41663162 -1.0409783 117.83326541 -1.05181217 97.24988651 C-1.05697551 87.69336061 -1.06401892 78.13684291 -1.07543945 68.58032227 C-1.08538514 60.25397993 -1.09185315 51.92764352 -1.09408849 43.60129541 C-1.0953958 39.18975143 -1.09848288 34.77822443 -1.10573006 30.36668587 C-1.11248846 26.21929613 -1.11461733 22.07193047 -1.11310768 17.92453575 C-1.11338409 16.3978627 -1.11539028 14.87118888 -1.11920547 13.34452057 C-1.12413994 11.26916541 -1.12299923 9.19390258 -1.12025452 7.11854553 C-1.12117631 5.95432099 -1.1220981 4.79009645 -1.12304783 3.59059238 C-1 1 -1 1 0 0 Z " fill="#86A6B1" transform="translate(447,221)" data-index="25"></path>
<path d="M0 0 C0.60328125 1.09699219 1.2065625 2.19398438 1.828125 3.32421875 C2.6351726 4.77878128 3.44247792 6.23320083 4.25 7.6875 C4.64574219 8.40873047 5.04148437 9.12996094 5.44921875 9.87304688 C7.68242928 13.88184282 9.99303356 17.50336701 13 21 C10.55890752 23.95500669 8.73327981 24.43413746 5 25 C3.28163545 25.08810421 1.56046402 25.13058186 -0.16015625 25.1328125 C-1.11857422 25.13410156 -2.07699219 25.13539063 -3.06445312 25.13671875 C-4.54848633 25.13091797 -4.54848633 25.13091797 -6.0625 25.125 C-7.05572266 25.12886719 -8.04894531 25.13273437 -9.07226562 25.13671875 C-10.02939453 25.13542969 -10.98652344 25.13414062 -11.97265625 25.1328125 C-12.84156494 25.13168457 -13.71047363 25.13055664 -14.60571289 25.12939453 C-16.87284883 25.00687163 -18.82617652 24.63404497 -21 24 C-18.6345848 17.29600919 -7.71741006 0 0 0 Z " fill="#6D6453" transform="translate(704,420)" data-index="26"></path>
<path d="M0 0 C50.49 0 100.98 0 153 0 C152.67 0.99 152.34 1.98 152 3 C102.17 3 52.34 3 1 3 C0.67 2.01 0.34 1.02 0 0 Z " fill="#89A9B4" transform="translate(274,386)" data-index="27"></path>
<path d="M0 0 C3.01784991 1.75607646 5.41468217 3.82936435 7 7 C7.39431433 11.73177192 7.45299639 14.09400722 5.3125 18.375 C2.10926011 22.01111014 -0.20767725 22.68829169 -4.875 23.5 C-9.3709062 22.78065501 -11.93399192 20.26027305 -15 17 C-16.53214888 13.93570224 -16.22938548 11.3834358 -16 8 C-13.04118966 1.14801816 -7.33482556 -1.57584143 0 0 Z " fill="#E0E7EA" transform="translate(728,176)" data-index="28"></path>
<path d="M0 0 C1.11181641 0.00322266 2.22363281 0.00644531 3.36914062 0.00976562 C4.51962891 0.01814453 5.67011719 0.02652344 6.85546875 0.03515625 C8.02529297 0.03966797 9.19511719 0.04417969 10.40039062 0.04882812 C13.28130233 0.06058695 16.16210919 0.07702199 19.04296875 0.09765625 C19.37296875 1.08765625 19.70296875 2.07765625 20.04296875 3.09765625 C18.62232397 5.35202688 17.2007635 7.34214635 15.54296875 9.41015625 C15.08680176 9.99176514 14.63063477 10.57337402 14.16064453 11.17260742 C10.81493542 15.35151436 7.31516401 18.8470729 3.04296875 22.09765625 C2.45128906 21.22882813 1.85960937 20.36 1.25 19.46484375 C0.45198007 18.30067351 -0.34620593 17.13661709 -1.14453125 15.97265625 C-1.72557617 15.11800781 -1.72557617 15.11800781 -2.31835938 14.24609375 C-4.34321032 11.30085602 -6.42357727 8.50183432 -8.7578125 5.79296875 C-10.95703125 3.09765625 -10.95703125 3.09765625 -10.95703125 1.09765625 C-7.23814259 0.23439615 -3.81406637 -0.01955931 0 0 Z " fill="#6C6253" transform="translate(736.95703125,404.90234375)" data-index="29"></path>
<path d="M0 0 C11.22 0 22.44 0 34 0 C25.875 12.76785714 25.875 12.76785714 20 18 C15.50886433 16.85520071 11.87493742 15.54638745 8 13 C7.34 12.67 6.68 12.34 6 12 C5.67 11.01 5.34 10.02 5 9 C4.154375 8.38125 3.30875 7.7625 2.4375 7.125 C1.633125 6.42375 0.82875 5.7225 0 5 C0 3.35 0 1.7 0 0 Z " fill="#6D6554" transform="translate(690,452)" data-index="30"></path>
<path d="M0 0 C2.28943156 2.28943156 2.64103626 3.66893439 3.5 6.75 C4.5804795 10.53442058 5.72567992 14.27506439 7 18 C-4.03969967 21.09886306 -15.33511501 21.49047789 -26 17 C-23.76837327 13.65255991 -23.13451704 13.46917344 -19.5 12.25 C-13.64279103 10.05142446 -8.96308057 6.75278548 -4 3 C-2.86691406 2.15115234 -2.86691406 2.15115234 -1.7109375 1.28515625 C-1.14632812 0.86105469 -0.58171875 0.43695313 0 0 Z " fill="#91766A" transform="translate(730,463)" data-index="31"></path>
<path d="M0 0 C0.85201076 2.32256314 1.49418164 4.48172889 2.0625 6.875 C2.23168945 7.54958252 2.40087891 8.22416504 2.57519531 8.91918945 C6 22.84771834 6 22.84771834 6 30 C3.36 30.66 0.72 31.32 -2 32 C-6.25566735 21.36083162 -7.42919247 11.40112928 -8 0 C-4.71303767 -0.79953138 -3.28976808 -1.09658936 0 0 Z " fill="#6F6655" transform="translate(723,409)" data-index="32"></path>
<path d="M0 0 C0.66 0.33 1.32 0.66 2 1 C1.76011353 1.84558472 1.76011353 1.84558472 1.51538086 2.70825195 C0.98177679 5.0810333 0.82641936 7.23890175 0.75390625 9.66796875 C0.72103516 10.56193359 0.68816406 11.45589844 0.65429688 12.37695312 C0.59374027 14.23101603 0.53637854 16.08518641 0.48242188 17.93945312 C0.25757827 23.86599122 -0.54833831 29.24624778 -2 35 C-2.33 35 -2.66 35 -3 35 C-3.02684679 32.35409986 -3.04676357 29.70846904 -3.0625 27.0625 C-3.07087891 26.30775391 -3.07925781 25.55300781 -3.08789062 24.77539062 C-3.09652441 22.85005687 -3.05224333 20.92464419 -3 19 C-2.67 18.67 -2.34 18.34 -2 18 C-1.95919217 16.00041636 -1.95745644 13.99954746 -2 12 C-2.47050781 12.3609375 -2.94101562 12.721875 -3.42578125 13.09375 C-4.04839844 13.5578125 -4.67101562 14.021875 -5.3125 14.5 C-5.92738281 14.9640625 -6.54226563 15.428125 -7.17578125 15.90625 C-9 17 -9 17 -12 17 C-12.25910156 17.57621094 -12.51820313 18.15242188 -12.78515625 18.74609375 C-14.09599382 21.17809787 -15.59597834 23.00712421 -17.4375 25.0625 C-18.03433594 25.73410156 -18.63117187 26.40570313 -19.24609375 27.09765625 C-20.79296942 28.7754479 -22.37171566 30.40159243 -24 32 C-21.40317652 19.52983727 -13.09023744 8.66317537 -2.5625 1.5625 C-1.716875 1.046875 -0.87125 0.53125 0 0 Z " fill="#DCD4CF" transform="translate(674,421)" data-index="33"></path>
<path d="M0 0 C-0.6290625 0.72960937 -1.258125 1.45921875 -1.90625 2.2109375 C-9.2499991 11.05714449 -13.72949966 20.37146423 -18 31 C-18.66 31 -19.32 31 -20 31 C-20.44689047 21.80150447 -20.78211832 13.23587044 -16 5 C-11.39487439 0.89543152 -6.10023756 -1.81959876 0 0 Z " fill="#927669" transform="translate(694,410)" data-index="34"></path>
<path d="M0 0 C0.99 0 1.98 0 3 0 C3.23074219 0.59425781 3.46148438 1.18851563 3.69921875 1.80078125 C5.87508272 7.33074383 8.22335142 12.74620123 10.71484375 18.140625 C12.04911427 21.10927552 13.2787566 24.10826082 14.5 27.125 C16.31833748 31.54829118 18.41133139 35.62866962 20.796875 39.765625 C23.33755442 44.48402964 26 49.58459824 26 55 C26.66 55 27.32 55 28 55 C28.33 56.98 28.66 58.96 29 61 C27.140625 60.84765625 27.140625 60.84765625 25 60 C23.796875 57.62109375 23.796875 57.62109375 22.75 54.4375 C19.59452738 45.5670073 15.28789804 37.36463232 10.97363281 29.01318359 C8.67872996 24.51197995 6.69592013 19.96126954 4.875 15.25 C3.03712049 10.43916818 3.03712049 10.43916818 0.8203125 5.796875 C0 4 0 4 0 0 Z " fill="#8AAAB5" transform="translate(596,193)" data-index="35"></path>
<path d="M0 0 C2.64 0.66 5.28 1.32 8 2 C10.16075374 2.26266043 12.32838216 2.47693515 14.5 2.625 C15.5415625 2.69976562 16.583125 2.77453125 17.65625 2.8515625 C18.4296875 2.90054687 19.203125 2.94953125 20 3 C15.9956181 9.84081909 10.13363446 15.43318277 3 19 C2.34 19 1.68 19 1 19 C0.67 12.73 0.34 6.46 0 0 Z " fill="#8E7467" transform="translate(741,459)" data-index="36"></path>
<path d="M0 0 C0.99 0.33 1.98 0.66 3 1 C3 23.44 3 45.88 3 69 C2.01 69 1.02 69 0 69 C0 46.23 0 23.46 0 0 Z " fill="#88A8B3" transform="translate(260,311)" data-index="37"></path>
<path d="M0 0 C0.66 0 1.32 0 2 0 C2.6789678 1.70348171 3.34261957 3.41307179 4 5.125 C4.37125 6.07632812 4.7425 7.02765625 5.125 8.0078125 C6.04513131 11.15433296 6.15476539 13.74025404 6 17 C3.40163864 18.36645701 0.79734444 19.71830669 -1.8125 21.0625 C-2.91948242 21.64741211 -2.91948242 21.64741211 -4.04882812 22.24414062 C-4.76103516 22.60830078 -5.47324219 22.97246094 -6.20703125 23.34765625 C-6.8616333 23.68804932 -7.51623535 24.02844238 -8.19067383 24.37915039 C-10 25 -10 25 -13 24 C-12.39671875 23.02160156 -11.7934375 22.04320312 -11.171875 21.03515625 C-6.97868851 14.17715732 -3.01665952 7.47606924 0 0 Z " fill="#937869" transform="translate(763,413)" data-index="38"></path>
<path d="M0 0 C1.2421875 2.05859375 1.2421875 2.05859375 2 4 C1.34515625 4.30550781 0.6903125 4.61101562 0.015625 4.92578125 C-10.55617211 10.22661172 -19.70942488 17.89014713 -26 28 C-27 26 -27 26 -26.3984375 24.1171875 C-22.62594205 15.85225471 -18.24797909 8.63300861 -12 2 C-11.071875 1.01 -11.071875 1.01 -10.125 0 C-6.50091155 -1.70545339 -3.85879065 -0.93357838 0 0 Z " fill="#CACF68" transform="translate(680,409)" data-index="39"></path>
<path d="M0 0 C3.69252721 2.23269087 6.68121905 4.59694553 9.625 7.75 C9.295 8.74 8.965 9.73 8.625 10.75 C8.2125 10.35167969 7.8 9.95335937 7.375 9.54296875 C6.7975 9.01316406 6.22 8.48335937 5.625 7.9375 C5.068125 7.41542969 4.51125 6.89335937 3.9375 6.35546875 C-3.34072512 1.30251178 -10.30981498 1.36271399 -18.875 1.5625 C-19.98359375 1.57603516 -21.0921875 1.58957031 -22.234375 1.60351562 C-24.94843232 1.63861119 -27.66145193 1.6877773 -30.375 1.75 C-30.375 2.41 -30.375 3.07 -30.375 3.75 C-34.83 5.235 -34.83 5.235 -39.375 6.75 C-38.375 2.75 -38.375 2.75 -35.1875 0.625 C-24.45729324 -5.23664793 -10.80837099 -5.71631852 0 0 Z " fill="#E6AE6E" transform="translate(742.375,156.25)" data-index="40"></path>
<path d="M0 0 C0 0.99 0 1.98 0 3 C-14.73038142 9.46981458 -33.02920837 11.2538404 -49 11 C-49 10.01 -49 9.02 -49 8 C-45.86385467 6.95461822 -42.96964984 6.71090446 -39.68969727 6.45458984 C-30.16238955 5.69458186 -21.13921211 4.09526675 -11.89306641 1.67675781 C-4.18405697 -0.32647672 -4.18405697 -0.32647672 0 0 Z " fill="#7E6056" transform="translate(301,227)" data-index="41"></path>
<path d="M0 0 C17.49 0 34.98 0 53 0 C53 0.99 53 1.98 53 3 C35.51 3 18.02 3 0 3 C0 2.01 0 1.02 0 0 Z " fill="#86A6B1" transform="translate(379,223)" data-index="42"></path>
<path d="M0 0 C7.10763672 1.60495023 12.83316396 3.922453 17.54296875 9.57421875 C16.62386719 9.42082031 15.70476563 9.26742188 14.7578125 9.109375 C9.56399974 8.36740175 4.34271239 8.21957292 -0.89453125 8.01171875 C-1.91224609 7.96853516 -2.92996094 7.92535156 -3.97851562 7.88085938 C-6.47124153 7.77553293 -8.96405463 7.67340203 -11.45703125 7.57421875 C-9.04862058 0.71951145 -7.11455211 -1.07936924 0 0 Z " fill="#917468" transform="translate(733.45703125,388.42578125)" data-index="43"></path>
<path d="M0 0 C2.81876899 1.84027912 5.44789747 3.80621559 8 6 C7.34 6.33 6.68 6.66 6 7 C3.79831202 6.12511872 1.63576495 5.15035618 -0.5 4.125 C-2.24796875 3.29355469 -2.24796875 3.29355469 -4.03125 2.4453125 C-5.69096745 1.63729216 -7.34892547 0.82553726 -9 0 C-22.36118547 -0.86035374 -22.36118547 -0.86035374 -34.95703125 3.02734375 C-37.27997173 4.13329438 -39.47052155 4.58062748 -42 5 C-32.20702717 -7.15679385 -12.88275126 -6.76959859 0 0 Z " fill="#EDC889" transform="translate(744,154)" data-index="44"></path>

<path d="M0 0 C-10.81736519 8.1772739 -10.81736519 8.1772739 -14.99291992 7.83813477 C-16.10050659 7.64175415 -16.10050659 7.64175415 -17.23046875 7.44140625 C-18.03291016 7.30283203 -18.83535156 7.16425781 -19.66210938 7.02148438 C-20.91217773 6.79428711 -20.91217773 6.79428711 -22.1875 6.5625 C-23.4549707 6.34110352 -23.4549707 6.34110352 -24.74804688 6.11523438 C-26.8331891 5.75003997 -28.91675673 5.3758757 -31 5 C-31 4.34 -31 3.68 -31 3 C-20.44145822 0.188851 -10.84984724 -0.35465602 0 0 Z " fill="#DDD6CF" transform="translate(685,400)" data-index="46"></path>
<path d="M0 0 C10.89 0 21.78 0 33 0 C33 1.32 33 2.64 33 4 C22.11 4 11.22 4 0 4 C0 2.68 0 1.36 0 0 Z " fill="#8BABB6" transform="translate(456,386)" data-index="47"></path>
<path d="M0 0 C-0.11487748 1.58409994 -0.24234508 3.16728963 -0.375 4.75 C-0.44460938 5.63171875 -0.51421875 6.5134375 -0.5859375 7.421875 C-0.99850055 9.99066382 -1.71160957 11.75841015 -3 14 C-4.79236067 13.52343588 -6.58386897 13.04366502 -8.375 12.5625 C-9.37273438 12.29566406 -10.37046875 12.02882813 -11.3984375 11.75390625 C-14 11 -14 11 -16 10 C-16 9.34 -16 8.68 -16 8 C-15.16855469 7.59007812 -14.33710937 7.18015625 -13.48046875 6.7578125 C-12.39378906 6.21898437 -11.30710937 5.68015625 -10.1875 5.125 C-9.10855469 4.59132813 -8.02960937 4.05765625 -6.91796875 3.5078125 C-0.12953368 0 -0.12953368 0 0 0 Z " fill="#93796A" transform="translate(769,440)" data-index="48"></path>

<path d="M0 0 C8.91 0 17.82 0 27 0 C27 0.99 27 1.98 27 3 C18.42 3 9.84 3 1 3 C0.67 2.01 0.34 1.02 0 0 Z " fill="#87A7B2" transform="translate(220,385)" data-index="50"></path>
<path d="M0 0 C0.99 0 1.98 0 3 0 C11 15.71541502 11 15.71541502 11 21 C9.12011719 20.73193359 9.12011719 20.73193359 7 20 C5.90332031 18.37353516 5.90332031 18.37353516 5.078125 16.2890625 C4.77519531 15.53882813 4.47226562 14.78859375 4.16015625 14.015625 C3.70962891 12.83226562 3.70962891 12.83226562 3.25 11.625 C2.93417969 10.84382812 2.61835937 10.06265625 2.29296875 9.2578125 C0 3.46086986 0 3.46086986 0 0 Z " fill="#CED4E6" transform="translate(616,199)" data-index="51"></path>
<path d="M0 0 C3.96 0 7.92 0 12 0 C12.33 0.99 12.66 1.98 13 3 C12.00390625 4.82421875 12.00390625 4.82421875 10.5625 6.6875 C10.08941406 7.31011719 9.61632812 7.93273437 9.12890625 8.57421875 C8.75636719 9.04472656 8.38382813 9.51523437 8 10 C4.125 6.25 4.125 6.25 3 4 C2.01 3.67 1.02 3.34 0 3 C0 2.01 0 1.02 0 0 Z " fill="#8D7366" transform="translate(744,405)" data-index="52"></path>

<path d="M0 0 C2 2 2 2 2.125 5.125 C2.08375 6.07375 2.0425 7.0225 2 8 C-2.0527516 8.98248524 -5.83861737 9.08159574 -10 9 C-6.83047153 5.73991357 -3.60062011 2.77762123 0 0 Z " fill="#736958" transform="translate(730,463)" data-index="54"></path>
<path d="M0 0 C0.33 0 0.66 0 1 0 C1.02719556 2.37507855 1.04693247 4.74983964 1.0625 7.125 C1.07087891 7.79015625 1.07925781 8.4553125 1.08789062 9.140625 C1.10782292 13.20681354 0.78890161 17.0120092 0 21 C-2.475 20.01 -2.475 20.01 -5 19 C-4.80664062 18.29875 -4.61328125 17.5975 -4.4140625 16.875 C-2.874383 11.26507866 -1.38582343 5.64989553 0 0 Z " fill="#D1D579" transform="translate(770,373)" data-index="55"></path>
<path d="M0 0 C0.33 0 0.66 0 1 0 C1.11269443 6.1105424 0.89604368 11.95170514 0 18 C-1.98 17.34 -3.96 16.68 -6 16 C-5.34 15.67 -4.68 15.34 -4 15 C-4.33 11.37 -4.66 7.74 -5 4 C-3.68 5.32 -2.36 6.64 -1 8 C-0.67 5.36 -0.34 2.72 0 0 Z " fill="#DED9C3" transform="translate(704,371)" data-index="56"></path>
<path d="M0 0 C0.99 0 1.98 0 3 0 C3 5.94 3 11.88 3 18 C2.01 17.67 1.02 17.34 0 17 C0 11.39 0 5.78 0 0 Z " fill="#88A8B3" transform="translate(450,168)" data-index="57"></path>
<path d="M0 0 C5.02692063 0.45699278 8.14896261 2.99241748 12 6 C9.27656092 7.36171954 7.98550201 6.61643969 5 6 C2.23338149 5.73830243 -0.53790212 5.58875154 -3.3125 5.4375 C-4.05306641 5.39431641 -4.79363281 5.35113281 -5.55664062 5.30664062 C-7.37091464 5.20129568 -9.1854355 5.10021684 -11 5 C-11 4.67 -11 4.34 -11 4 C-7.7 3.67 -4.4 3.34 -1 3 C-0.67 2.01 -0.34 1.02 0 0 Z " fill="#9A836C" transform="translate(739,391)" data-index="58"></path>
<path d="M0 0 C0.66 0 1.32 0 2 0 C2.33 2.31 2.66 4.62 3 7 C0.1875 8.5625 0.1875 8.5625 -3 10 C-3.99 9.67 -4.98 9.34 -6 9 C-5.05016642 7.49460339 -4.08988109 5.99579653 -3.125 4.5 C-2.59132813 3.6646875 -2.05765625 2.829375 -1.5078125 1.96875 C-0.76144531 0.99421875 -0.76144531 0.99421875 0 0 Z " fill="#706659" transform="translate(756,428)" data-index="59"></path>
<path d="M0 0 C1.32 0 2.64 0 4 0 C4.33 2.97 4.66 5.94 5 9 C3.35 9 1.7 9 0 9 C0 6.03 0 3.06 0 0 Z " fill="#0E0E0E" transform="translate(762,879)" data-index="60"></path>
<path d="M0 0 C1.32 0.66 2.64 1.32 4 2 C4 5.96 4 9.92 4 14 C3.67 14 3.34 14 3 14 C3 10.37 3 6.74 3 3 C2.34 3 1.68 3 1 3 C1 5.97 1 8.94 1 12 C0.67 12 0.34 12 0 12 C-0.33 10.02 -0.66 8.04 -1 6 C-1.99 6.495 -1.99 6.495 -3 7 C-1.125 1.125 -1.125 1.125 0 0 Z " fill="#E2B679" transform="translate(687,180)" data-index="61"></path>
<path d="M0 0 C0.33 0 0.66 0 1 0 C1.23668569 7.03482474 0.7879537 13.1834265 -1 20 C-1.33 20 -1.66 20 -2 20 C-2.05407567 17.41638482 -2.093707 14.83390745 -2.125 12.25 C-2.14175781 11.52039063 -2.15851562 10.79078125 -2.17578125 10.0390625 C-2.21072239 6.1955376 -2.17499684 3.25393228 0 0 Z " fill="#D8D1BF" transform="translate(673,436)" data-index="62"></path>
<path d="M0 0 C1.65 0.33 3.3 0.66 5 1 C4.60167969 1.44730469 4.20335937 1.89460938 3.79296875 2.35546875 C0.82015875 5.74779939 -1.8282194 9.01840224 -4 13 C-4.33 12.34 -4.66 11.68 -5 11 C-4.2578125 8.90625 -4.2578125 8.90625 -3.125 6.5 C-2.75632812 5.7059375 -2.38765625 4.911875 -2.0078125 4.09375 C-1.3486219 2.72426876 -0.67970746 1.35941491 0 0 Z " fill="#D1D478" transform="translate(658,424)" data-index="63"></path>
<path d="M0 0 C0.33 0 0.66 0 1 0 C0.96744792 2.01822917 0.93489583 4.03645833 0.90234375 6.0546875 C0.87350758 8.08185404 0.87350758 8.08185404 2 10 C1.44140625 12.3828125 1.44140625 12.3828125 0.5625 15.125 C0.27503906 16.03507812 -0.01242187 16.94515625 -0.30859375 17.8828125 C-0.53675781 18.58148438 -0.76492188 19.28015625 -1 20 C-1.33 20 -1.66 20 -2 20 C-2.26618595 13.04958914 -1.6120509 6.76485645 0 0 Z " fill="#E4DFDA" transform="translate(668,470)" data-index="64"></path>
<path d="M0 0 C2.475 0.99 2.475 0.99 5 2 C5 2.66 5 3.32 5 4 C5.53625 4.268125 6.0725 4.53625 6.625 4.8125 C9.41666667 6.20833333 12.20833333 7.60416667 15 9 C13 10 13 10 10.6875 9.25 C7.99450227 7.99744292 5.52072729 6.56693859 3 5 C2.34 4.67 1.68 4.34 1 4 C0.375 1.9375 0.375 1.9375 0 0 Z " fill="#7D6A5D" transform="translate(695,460)" data-index="65"></path>

<path d="M0 0 C0.33 0.66 0.66 1.32 1 2 C1.66 2 2.32 2 3 2 C2.71788123 3.6266848 2.42397625 5.25132896 2.125 6.875 C1.96257813 7.77992188 1.80015625 8.68484375 1.6328125 9.6171875 C1 12 1 12 -1 14 C-1.08333357 9.1666528 -0.95261487 4.76307437 0 0 Z " fill="#CCD071" transform="translate(671,456)" data-index="67"></path>
<path d="M0 0 C2.5 2.3125 2.5 2.3125 5 5 C5 5.99 5 6.98 5 8 C4.67 7.67 4.34 7.34 4 7 C3.67 7.66 3.34 8.32 3 9 C3.66 9 4.32 9 5 9 C4.67 9.99 4.34 10.98 4 12 C3.34 11.67 2.68 11.34 2 11 C1.3671875 8.49609375 1.3671875 8.49609375 0.875 5.4375 C0.70742188 4.42558594 0.53984375 3.41367187 0.3671875 2.37109375 C0.24601563 1.58863281 0.12484375 0.80617188 0 0 Z " fill="#D0D373" transform="translate(702,358)" data-index="68"></path>
<path d="M0 0 C1.27596315 3.82788944 0.62344752 5.36656983 -1 9 C-3.58975241 10.8378888 -4.78481903 11 -8 11 C-7.38511719 10.31164062 -7.38511719 10.31164062 -6.7578125 9.609375 C-6.21898437 8.99578125 -5.68015625 8.3821875 -5.125 7.75 C-4.59132813 7.14671875 -4.05765625 6.5434375 -3.5078125 5.921875 C-2.0202513 4.02581254 -0.99677564 2.18709995 0 0 Z " fill="#D2D478" transform="translate(788,408)" data-index="69"></path>
<path d="M0 0 C1.98 0.495 1.98 0.495 4 1 C4 2.98 4 4.96 4 7 C2.35 5.68 0.7 4.36 -1 3 C-0.67 2.01 -0.34 1.02 0 0 Z " fill="#CBCF71" transform="translate(740,481)" data-index="70"></path>
<path d="M0 0 C0.66 0 1.32 0 2 0 C0.49901406 3.11743233 -1.02431822 6.15501823 -3 9 C-3.99 9 -4.98 9 -6 9 C-5.05016642 7.49460339 -4.08988109 5.99579653 -3.125 4.5 C-2.59132813 3.6646875 -2.05765625 2.829375 -1.5078125 1.96875 C-0.76144531 0.99421875 -0.76144531 0.99421875 0 0 Z " fill="#787159" transform="translate(756,428)" data-index="71"></path>
<path d="M0 0 C0.66 0 1.32 0 2 0 C0.25 6.75 0.25 6.75 -2 9 C-2.99 8.67 -3.98 8.34 -5 8 C-4.34 7.67 -3.68 7.34 -3 7 C-1.94647157 4.69034152 -0.94280904 2.3570226 0 0 Z " fill="#D1D476" transform="translate(764,393)" data-index="72"></path>
<path d="M0 0 C3.63 0.33 7.26 0.66 11 1 C11 1.33 11 1.66 11 2 C10.05125 2.12375 9.1025 2.2475 8.125 2.375 C4.91332809 2.71687177 4.91332809 2.71687177 3 5 C2.01 3.35 1.02 1.7 0 0 Z " fill="#98ACB2" transform="translate(357,249)" data-index="73"></path>
<path d="M0 0 C0.66 0 1.32 0 2 0 C5 4.38461538 5 4.38461538 5 7 C3.0625 6.3125 3.0625 6.3125 1 5 C0.25 2.375 0.25 2.375 0 0 Z " fill="#7F6C5C" transform="translate(690,453)" data-index="74"></path>
<path d="M0 0 C0.66 0.33 1.32 0.66 2 1 C2 1.99 2 2.98 2 4 C-0.31 3.67 -2.62 3.34 -5 3 C-3 1 -3 1 0 0 Z " fill="#D7D987" transform="translate(662,385)" data-index="75"></path>
</svg>